<svg width="70" height="63" viewBox="0 0 70 63" fill="none" xmlns="http://www.w3.org/2000/svg">
<g filter="url(#filter0_ii_1385_983)">
<path d="M25.7859 2.28219C21.3807 -0.744844 18.1339 -0.121351 17.0612 0.568775C9.69545 5.0665 15.7739 13.6336 11.34 17.4887C6.90616 21.3439 2.18503 16.632 0.326464 21.6295C-1.57259 26.7358 5.26148 28.0548 9.26624 35.6224C13.271 43.19 5.83359 49.8295 10.768 54.3272C15.7025 58.8249 17.6333 56.6117 25.9289 56.112C34.2245 55.6122 39.8741 64.1793 44.88 62.2517C49.886 60.3241 50.029 56.112 50.4581 54.3272C50.8872 52.5424 50.6011 49.5474 58.9682 46.2598C71.9122 40.3343 71.2686 26.8411 65.9051 23.9854C60.5415 21.1298 55.2495 14.7758 56.9659 8.42192C58.6822 2.06801 52.8181 -1.07326 48.4557 0.568775C44.0934 2.2108 31.2925 6.06598 25.7859 2.28219Z" fill="url(#paint0_linear_1385_983)"/>
</g>
<g filter="url(#filter1_ii_1385_983)">
<path d="M26.9351 5.97936C23.0983 3.33845 20.2705 3.88241 19.3362 4.4845C12.9209 8.4085 18.215 15.8828 14.3533 19.2462C10.4916 22.6096 6.37964 18.4988 4.7609 22.8588C3.10689 27.3137 9.0591 28.4645 12.5471 35.0667C16.0351 41.669 9.55739 47.4616 13.8551 51.3856C18.1528 55.3096 19.8345 53.3787 27.0597 52.9427C34.2848 52.5067 39.2053 59.981 43.5653 58.2993C47.9253 56.6176 48.0499 52.9427 48.4236 51.3856C48.7973 49.8284 48.5482 47.2155 55.8356 44.3473C67.1093 39.1776 66.5487 27.4056 61.8773 24.9142C57.2059 22.4228 52.5968 16.8793 54.0916 11.3359C55.5865 5.7925 50.479 3.05193 46.6796 4.4845C42.8802 5.91708 31.7311 9.2805 26.9351 5.97936Z" fill="#C5B2FF"/>
<path d="M26.9351 5.97936C23.0983 3.33845 20.2705 3.88241 19.3362 4.4845C12.9209 8.4085 18.215 15.8828 14.3533 19.2462C10.4916 22.6096 6.37964 18.4988 4.7609 22.8588C3.10689 27.3137 9.0591 28.4645 12.5471 35.0667C16.0351 41.669 9.55739 47.4616 13.8551 51.3856C18.1528 55.3096 19.8345 53.3787 27.0597 52.9427C34.2848 52.5067 39.2053 59.981 43.5653 58.2993C47.9253 56.6176 48.0499 52.9427 48.4236 51.3856C48.7973 49.8284 48.5482 47.2155 55.8356 44.3473C67.1093 39.1776 66.5487 27.4056 61.8773 24.9142C57.2059 22.4228 52.5968 16.8793 54.0916 11.3359C55.5865 5.7925 50.479 3.05193 46.6796 4.4845C42.8802 5.91708 31.7311 9.2805 26.9351 5.97936Z" fill="url(#paint1_linear_1385_983)"/>
</g>
<g filter="url(#filter2_f_1385_983)">
<ellipse cx="24.9349" cy="19.3445" rx="6.73765" ry="9.57124" transform="rotate(21.3717 24.9349 19.3445)" fill="white" fill-opacity="0.55"/>
</g>
<g filter="url(#filter3_f_1385_983)">
<ellipse cx="23.1807" cy="16.3542" rx="1.82246" ry="3.60391" transform="rotate(21.3717 23.1807 16.3542)" fill="white" fill-opacity="0.7"/>
</g>
<g filter="url(#filter4_f_1385_983)">
<ellipse cx="23.5566" cy="16.1953" rx="1.78959" ry="3.53891" transform="rotate(21.3717 23.5566 16.1953)" fill="white" fill-opacity="0.7"/>
</g>
<g filter="url(#filter5_f_1385_983)">
<ellipse cx="19.0785" cy="42.0779" rx="3.17872" ry="8.88189" transform="rotate(10.5885 19.0785 42.0779)" fill="white" fill-opacity="0.4"/>
</g>
<g filter="url(#filter6_f_1385_983)">
<circle cx="40.9839" cy="27.5933" r="3.55028" fill="#5C5180" fill-opacity="0.5"/>
</g>
<g filter="url(#filter7_f_1385_983)">
<circle cx="23.7964" cy="25.4785" r="3.55028" fill="#5C5180" fill-opacity="0.5"/>
</g>
<path d="M34.1505 31.836C34.5639 31.8835 34.8673 32.2657 34.7174 32.654C34.2189 33.9456 32.8961 34.7896 31.4567 34.6241C30.0172 34.4585 28.9206 33.3363 28.7282 31.9652C28.6704 31.5531 29.0526 31.2498 29.466 31.2973L34.1505 31.836Z" fill="#D9D9D9"/>
<path d="M34.1505 31.836C34.5639 31.8835 34.8673 32.2657 34.7174 32.654C34.2189 33.9456 32.8961 34.7896 31.4567 34.6241C30.0172 34.4585 28.9206 33.3363 28.7282 31.9652C28.6704 31.5531 29.0526 31.2498 29.466 31.2973L34.1505 31.836Z" fill="url(#paint2_linear_1385_983)"/>
<g filter="url(#filter8_ii_1385_983)">
<circle cx="23.9377" cy="25.6559" r="3.1603" transform="rotate(3.17 23.9377 25.6559)" fill="url(#paint3_radial_1385_983)"/>
</g>
<ellipse cx="25.5725" cy="24.3786" rx="0.379235" ry="0.568853" transform="rotate(-32.0461 25.5725 24.3786)" fill="white"/>
<g opacity="0.7" filter="url(#filter9_ii_1385_983)">
<ellipse cx="22.6598" cy="24.143" rx="0.723563" ry="0.878613" transform="rotate(43.6234 22.6598 24.143)" fill="url(#paint4_linear_1385_983)"/>
</g>
<g filter="url(#filter10_ii_1385_983)">
<circle cx="41.1526" cy="27.6554" r="3.1603" transform="rotate(3.17 41.1526 27.6554)" fill="url(#paint5_radial_1385_983)"/>
</g>
<ellipse cx="42.7834" cy="26.382" rx="0.379235" ry="0.568853" transform="rotate(-32.0461 42.7834 26.382)" fill="white"/>
<g opacity="0.7" filter="url(#filter11_ii_1385_983)">
<ellipse cx="39.8668" cy="26.1421" rx="0.723563" ry="0.878613" transform="rotate(43.6234 39.8668 26.1421)" fill="url(#paint6_linear_1385_983)"/>
</g>
<defs>
<filter id="filter0_ii_1385_983" x="-1.24571" y="-1.49486" width="72.0031" height="65.2752" filterUnits="userSpaceOnUse" color-interpolation-filters="sRGB">
<feFlood flood-opacity="0" result="BackgroundImageFix"/>
<feBlend mode="normal" in="SourceGraphic" in2="BackgroundImageFix" result="shape"/>
<feColorMatrix in="SourceAlpha" type="matrix" values="0 0 0 0 0 0 0 0 0 0 0 0 0 0 0 0 0 0 127 0" result="hardAlpha"/>
<feOffset dx="-1.24571" dy="-1.86857"/>
<feGaussianBlur stdDeviation="0.747428"/>
<feComposite in2="hardAlpha" operator="arithmetic" k2="-1" k3="1"/>
<feColorMatrix type="matrix" values="0 0 0 0 0.485014 0 0 0 0 0.759673 0 0 0 0 1 0 0 0 1 0"/>
<feBlend mode="normal" in2="shape" result="effect1_innerShadow_1385_983"/>
<feColorMatrix in="SourceAlpha" type="matrix" values="0 0 0 0 0 0 0 0 0 0 0 0 0 0 0 0 0 0 127 0" result="hardAlpha"/>
<feOffset dx="1.24571" dy="1.24571"/>
<feGaussianBlur stdDeviation="0.622856"/>
<feComposite in2="hardAlpha" operator="arithmetic" k2="-1" k3="1"/>
<feColorMatrix type="matrix" values="0 0 0 0 0.680119 0 0 0 0 0.851048 0 0 0 0 1 0 0 0 1 0"/>
<feBlend mode="normal" in2="effect1_innerShadow_1385_983" result="effect2_innerShadow_1385_983"/>
</filter>
<filter id="filter1_ii_1385_983" x="-12.9634" y="-3.48599" width="80.4744" height="62.0324" filterUnits="userSpaceOnUse" color-interpolation-filters="sRGB">
<feFlood flood-opacity="0" result="BackgroundImageFix"/>
<feBlend mode="normal" in="SourceGraphic" in2="BackgroundImageFix" result="shape"/>
<feColorMatrix in="SourceAlpha" type="matrix" values="0 0 0 0 0 0 0 0 0 0 0 0 0 0 0 0 0 0 127 0" result="hardAlpha"/>
<feOffset dx="-18.6857" dy="-7.47428"/>
<feGaussianBlur stdDeviation="8.71999"/>
<feComposite in2="hardAlpha" operator="arithmetic" k2="-1" k3="1"/>
<feColorMatrix type="matrix" values="0 0 0 0 0.391271 0 0 0 0 0.195932 0 0 0 0 1 0 0 0 1 0"/>
<feBlend mode="normal" in2="shape" result="effect1_innerShadow_1385_983"/>
<feColorMatrix in="SourceAlpha" type="matrix" values="0 0 0 0 0 0 0 0 0 0 0 0 0 0 0 0 0 0 127 0" result="hardAlpha"/>
<feOffset dx="2.49143"/>
<feGaussianBlur stdDeviation="2.49143"/>
<feComposite in2="hardAlpha" operator="arithmetic" k2="-1" k3="1"/>
<feColorMatrix type="matrix" values="0 0 0 0 0.640428 0 0 0 0 0.526955 0 0 0 0 0.969501 0 0 0 1 0"/>
<feBlend mode="normal" in2="effect1_innerShadow_1385_983" result="effect2_innerShadow_1385_983"/>
</filter>
<filter id="filter2_f_1385_983" x="11.5253" y="3.86861" width="26.8165" height="30.9518" filterUnits="userSpaceOnUse" color-interpolation-filters="sRGB">
<feFlood flood-opacity="0" result="BackgroundImageFix"/>
<feBlend mode="normal" in="SourceGraphic" in2="BackgroundImageFix" result="shape"/>
<feGaussianBlur stdDeviation="3.11428" result="effect1_foregroundBlur_1385_983"/>
</filter>
<filter id="filter3_f_1385_983" x="16.0523" y="7.94977" width="14.2587" height="16.809" filterUnits="userSpaceOnUse" color-interpolation-filters="sRGB">
<feFlood flood-opacity="0" result="BackgroundImageFix"/>
<feBlend mode="normal" in="SourceGraphic" in2="BackgroundImageFix" result="shape"/>
<feGaussianBlur stdDeviation="2.49143" result="effect1_foregroundBlur_1385_983"/>
</filter>
<filter id="filter4_f_1385_983" x="16.5562" y="7.94198" width="14.0008" height="16.5062" filterUnits="userSpaceOnUse" color-interpolation-filters="sRGB">
<feFlood flood-opacity="0" result="BackgroundImageFix"/>
<feBlend mode="normal" in="SourceGraphic" in2="BackgroundImageFix" result="shape"/>
<feGaussianBlur stdDeviation="2.44649" result="effect1_foregroundBlur_1385_983"/>
</filter>
<filter id="filter5_f_1385_983" x="9.32222" y="27.0991" width="19.5118" height="29.9581" filterUnits="userSpaceOnUse" color-interpolation-filters="sRGB">
<feFlood flood-opacity="0" result="BackgroundImageFix"/>
<feBlend mode="normal" in="SourceGraphic" in2="BackgroundImageFix" result="shape"/>
<feGaussianBlur stdDeviation="3.11428" result="effect1_foregroundBlur_1385_983"/>
</filter>
<filter id="filter6_f_1385_983" x="36.1879" y="22.7973" width="9.59299" height="9.59201" filterUnits="userSpaceOnUse" color-interpolation-filters="sRGB">
<feFlood flood-opacity="0" result="BackgroundImageFix"/>
<feBlend mode="normal" in="SourceGraphic" in2="BackgroundImageFix" result="shape"/>
<feGaussianBlur stdDeviation="0.622856" result="effect1_foregroundBlur_1385_983"/>
</filter>
<filter id="filter7_f_1385_983" x="19.0004" y="20.6825" width="9.59299" height="9.59201" filterUnits="userSpaceOnUse" color-interpolation-filters="sRGB">
<feFlood flood-opacity="0" result="BackgroundImageFix"/>
<feBlend mode="normal" in="SourceGraphic" in2="BackgroundImageFix" result="shape"/>
<feGaussianBlur stdDeviation="0.622856" result="effect1_foregroundBlur_1385_983"/>
</filter>
<filter id="filter8_ii_1385_983" x="20.7773" y="22.1164" width="6.32031" height="7.07927" filterUnits="userSpaceOnUse" color-interpolation-filters="sRGB">
<feFlood flood-opacity="0" result="BackgroundImageFix"/>
<feBlend mode="normal" in="SourceGraphic" in2="BackgroundImageFix" result="shape"/>
<feColorMatrix in="SourceAlpha" type="matrix" values="0 0 0 0 0 0 0 0 0 0 0 0 0 0 0 0 0 0 127 0" result="hardAlpha"/>
<feOffset dy="0.379235"/>
<feGaussianBlur stdDeviation="0.252824"/>
<feComposite in2="hardAlpha" operator="arithmetic" k2="-1" k3="1"/>
<feColorMatrix type="matrix" values="0 0 0 0 0 0 0 0 0 0 0 0 0 0 0 0 0 0 1 0"/>
<feBlend mode="normal" in2="shape" result="effect1_innerShadow_1385_983"/>
<feColorMatrix in="SourceAlpha" type="matrix" values="0 0 0 0 0 0 0 0 0 0 0 0 0 0 0 0 0 0 127 0" result="hardAlpha"/>
<feOffset dy="-0.379235"/>
<feGaussianBlur stdDeviation="0.252824"/>
<feComposite in2="hardAlpha" operator="arithmetic" k2="-1" k3="1"/>
<feColorMatrix type="matrix" values="0 0 0 0 0 0 0 0 0 0 0 0 0 0 0 0 0 0 1 0"/>
<feBlend mode="normal" in2="effect1_innerShadow_1385_983" result="effect2_innerShadow_1385_983"/>
</filter>
<filter id="filter9_ii_1385_983" x="21.8594" y="23.0816" width="1.60156" height="2.12283" filterUnits="userSpaceOnUse" color-interpolation-filters="sRGB">
<feFlood flood-opacity="0" result="BackgroundImageFix"/>
<feBlend mode="normal" in="SourceGraphic" in2="BackgroundImageFix" result="shape"/>
<feColorMatrix in="SourceAlpha" type="matrix" values="0 0 0 0 0 0 0 0 0 0 0 0 0 0 0 0 0 0 127 0" result="hardAlpha"/>
<feOffset dy="0.379235"/>
<feGaussianBlur stdDeviation="0.126412"/>
<feComposite in2="hardAlpha" operator="arithmetic" k2="-1" k3="1"/>
<feColorMatrix type="matrix" values="0 0 0 0 1 0 0 0 0 1 0 0 0 0 1 0 0 0 1 0"/>
<feBlend mode="normal" in2="shape" result="effect1_innerShadow_1385_983"/>
<feColorMatrix in="SourceAlpha" type="matrix" values="0 0 0 0 0 0 0 0 0 0 0 0 0 0 0 0 0 0 127 0" result="hardAlpha"/>
<feOffset dy="-0.252824"/>
<feGaussianBlur stdDeviation="0.126412"/>
<feComposite in2="hardAlpha" operator="arithmetic" k2="-1" k3="1"/>
<feColorMatrix type="matrix" values="0 0 0 0 1 0 0 0 0 1 0 0 0 0 1 0 0 0 1 0"/>
<feBlend mode="normal" in2="effect1_innerShadow_1385_983" result="effect2_innerShadow_1385_983"/>
</filter>
<filter id="filter10_ii_1385_983" x="37.9922" y="24.1159" width="6.32031" height="7.07927" filterUnits="userSpaceOnUse" color-interpolation-filters="sRGB">
<feFlood flood-opacity="0" result="BackgroundImageFix"/>
<feBlend mode="normal" in="SourceGraphic" in2="BackgroundImageFix" result="shape"/>
<feColorMatrix in="SourceAlpha" type="matrix" values="0 0 0 0 0 0 0 0 0 0 0 0 0 0 0 0 0 0 127 0" result="hardAlpha"/>
<feOffset dy="0.379235"/>
<feGaussianBlur stdDeviation="0.252824"/>
<feComposite in2="hardAlpha" operator="arithmetic" k2="-1" k3="1"/>
<feColorMatrix type="matrix" values="0 0 0 0 0 0 0 0 0 0 0 0 0 0 0 0 0 0 1 0"/>
<feBlend mode="normal" in2="shape" result="effect1_innerShadow_1385_983"/>
<feColorMatrix in="SourceAlpha" type="matrix" values="0 0 0 0 0 0 0 0 0 0 0 0 0 0 0 0 0 0 127 0" result="hardAlpha"/>
<feOffset dy="-0.379235"/>
<feGaussianBlur stdDeviation="0.252824"/>
<feComposite in2="hardAlpha" operator="arithmetic" k2="-1" k3="1"/>
<feColorMatrix type="matrix" values="0 0 0 0 0 0 0 0 0 0 0 0 0 0 0 0 0 0 1 0"/>
<feBlend mode="normal" in2="effect1_innerShadow_1385_983" result="effect2_innerShadow_1385_983"/>
</filter>
<filter id="filter11_ii_1385_983" x="39.0664" y="25.0807" width="1.60156" height="2.12283" filterUnits="userSpaceOnUse" color-interpolation-filters="sRGB">
<feFlood flood-opacity="0" result="BackgroundImageFix"/>
<feBlend mode="normal" in="SourceGraphic" in2="BackgroundImageFix" result="shape"/>
<feColorMatrix in="SourceAlpha" type="matrix" values="0 0 0 0 0 0 0 0 0 0 0 0 0 0 0 0 0 0 127 0" result="hardAlpha"/>
<feOffset dy="0.379235"/>
<feGaussianBlur stdDeviation="0.126412"/>
<feComposite in2="hardAlpha" operator="arithmetic" k2="-1" k3="1"/>
<feColorMatrix type="matrix" values="0 0 0 0 1 0 0 0 0 1 0 0 0 0 1 0 0 0 1 0"/>
<feBlend mode="normal" in2="shape" result="effect1_innerShadow_1385_983"/>
<feColorMatrix in="SourceAlpha" type="matrix" values="0 0 0 0 0 0 0 0 0 0 0 0 0 0 0 0 0 0 127 0" result="hardAlpha"/>
<feOffset dy="-0.252824"/>
<feGaussianBlur stdDeviation="0.126412"/>
<feComposite in2="hardAlpha" operator="arithmetic" k2="-1" k3="1"/>
<feColorMatrix type="matrix" values="0 0 0 0 1 0 0 0 0 1 0 0 0 0 1 0 0 0 1 0"/>
<feBlend mode="normal" in2="effect1_innerShadow_1385_983" result="effect2_innerShadow_1385_983"/>
</filter>
<linearGradient id="paint0_linear_1385_983" x1="56.0667" y1="62.5373" x2="31.6832" y2="-8.38077" gradientUnits="userSpaceOnUse">
<stop stop-color="#592CE5"/>
<stop offset="1" stop-color="#8DB4FF"/>
</linearGradient>
<linearGradient id="paint1_linear_1385_983" x1="18.6777" y1="3.98621" x2="49.2599" y2="53.005" gradientUnits="userSpaceOnUse">
<stop stop-color="#ADDEFF"/>
<stop offset="1" stop-color="#C5B1FF"/>
</linearGradient>
<linearGradient id="paint2_linear_1385_983" x1="31.5192" y1="31.5334" x2="31.7314" y2="34.7028" gradientUnits="userSpaceOnUse">
<stop stop-color="#260808"/>
<stop offset="1" stop-color="#835353"/>
</linearGradient>
<radialGradient id="paint3_radial_1385_983" cx="0" cy="0" r="1" gradientTransform="matrix(-0.291719 3.44759 -3.44759 -0.282946 24.2781 25.3686)" gradientUnits="userSpaceOnUse">
<stop stop-color="#292929"/>
<stop offset="1"/>
</radialGradient>
<linearGradient id="paint4_linear_1385_983" x1="22.1457" y1="23.4691" x2="23.8745" y2="23.848" gradientUnits="userSpaceOnUse">
<stop stop-color="white"/>
<stop offset="1" stop-color="white" stop-opacity="0.8"/>
</linearGradient>
<radialGradient id="paint5_radial_1385_983" cx="0" cy="0" r="1" gradientTransform="matrix(-0.291719 3.44759 -3.44759 -0.282946 41.4929 27.3681)" gradientUnits="userSpaceOnUse">
<stop stop-color="#292929"/>
<stop offset="1"/>
</radialGradient>
<linearGradient id="paint6_linear_1385_983" x1="39.3528" y1="25.4682" x2="41.0815" y2="25.8471" gradientUnits="userSpaceOnUse">
<stop stop-color="white"/>
<stop offset="1" stop-color="white" stop-opacity="0.8"/>
</linearGradient>
</defs>
</svg>
