<svg width="80" height="71" viewBox="0 0 80 71" fill="none" xmlns="http://www.w3.org/2000/svg">
<g filter="url(#filter0_iii_1196_13137)">
<path d="M72.5776 35.8453C70.3697 36.581 68.0577 39.098 67.1177 40.1369C65.0178 43.049 64.3578 45.1949 63.5778 48.4136C62.7979 51.6323 63.9375 56.6902 64.7175 58.1719C65.4974 59.6535 68.9777 63.7918 72.5776 62.6168C76.1775 61.4417 74.5518 56.6557 74.0718 53.1815C73.4789 48.8899 76.3518 45.3647 77.4917 43.5765C78.6317 41.7883 79.9574 39.8814 78.9974 37.5824C78.0374 35.2833 75.3375 34.9256 72.5776 35.8453Z" fill="url(#paint0_linear_1196_13137)"/>
</g>
<g filter="url(#filter1_i_1196_13137)">
<path d="M29.9612 7.61344C28.0001 10.4595 28.8534 12.5337 28.8534 12.5337C40.4161 11.4734 45.3074 13.1725 50.4267 15.1556C44.8199 12.1879 50.6979 7.5108 44.8323 3.63265C39.0884 -0.16503 32.7341 3.58915 29.9612 7.61344Z" fill="url(#paint1_linear_1196_13137)"/>
</g>
<g filter="url(#filter2_i_1196_13137)">
<path d="M21.9003 13.8741C17.8066 16.2377 14.6573 18.1438 10.8565 23.1891C5.24967 30.6317 4.3965 41.7195 6.47935 48.568C9.51087 58.5358 21.8674 67.9035 39.6423 64.5768C60.8801 60.6021 67.5225 54.9464 67.0238 42.7139C66.5251 30.4814 57.9678 15.2401 45.4499 11.6986C32.9319 8.15706 25.636 11.7173 21.9003 13.8741Z" fill="#D9D9D9"/>
<path d="M21.9003 13.8741C17.8066 16.2377 14.6573 18.1438 10.8565 23.1891C5.24967 30.6317 4.3965 41.7195 6.47935 48.568C9.51087 58.5358 21.8674 67.9035 39.6423 64.5768C60.8801 60.6021 67.5225 54.9464 67.0238 42.7139C66.5251 30.4814 57.9678 15.2401 45.4499 11.6986C32.9319 8.15706 25.636 11.7173 21.9003 13.8741Z" fill="url(#paint2_radial_1196_13137)"/>
<path d="M21.9003 13.8741C17.8066 16.2377 14.6573 18.1438 10.8565 23.1891C5.24967 30.6317 4.3965 41.7195 6.47935 48.568C9.51087 58.5358 21.8674 67.9035 39.6423 64.5768C60.8801 60.6021 67.5225 54.9464 67.0238 42.7139C66.5251 30.4814 57.9678 15.2401 45.4499 11.6986C32.9319 8.15706 25.636 11.7173 21.9003 13.8741Z" fill="url(#paint3_radial_1196_13137)"/>
</g>
<g filter="url(#filter3_f_1196_13137)">
<ellipse cx="27.2779" cy="38.8793" rx="4.25633" ry="4.18655" transform="rotate(-1.10857 27.2779 38.8793)" fill="#C28816" fill-opacity="0.8"/>
</g>
<g filter="url(#filter4_f_1196_13137)">
<ellipse cx="9.61095" cy="36.4008" rx="2.76224" ry="3.71515" transform="rotate(-1.10857 9.61095 36.4008)" fill="#C28816"/>
</g>
<g filter="url(#filter5_f_1196_13137)">
<ellipse cx="21.4612" cy="26.5318" rx="7.16045" ry="8.83579" transform="rotate(46.1818 21.4612 26.5318)" fill="white" fill-opacity="0.4"/>
</g>
<g filter="url(#filter6_f_1196_13137)">
<ellipse cx="20.0467" cy="52.3521" rx="7.71803" ry="9.52382" transform="rotate(107.884 20.0467 52.3521)" fill="white" fill-opacity="0.6"/>
</g>
<g filter="url(#filter7_f_1196_13137)">
<path d="M16.7642 42.2593C17.0061 42.3151 17.2161 42.487 17.3084 42.7374C17.4711 43.1797 17.8513 43.875 18.4571 44.2645C18.7451 44.4496 19.0892 44.5701 19.5124 44.5644C19.9417 44.5586 20.4993 44.4218 21.2035 44.0184C21.5687 43.8095 22.0344 43.9362 22.2437 44.3011C22.453 44.6664 22.3263 45.1319 21.9611 45.3413C21.0852 45.8429 20.276 46.0786 19.5328 46.0886C18.7839 46.0987 18.1492 45.8795 17.6326 45.5474C17.0819 45.1934 16.6751 44.7161 16.3821 44.2614C15.9648 44.6048 15.433 44.9359 14.8017 45.1053C14.2085 45.2644 13.5371 45.2801 12.8268 45.0427C12.122 44.807 11.4228 44.3362 10.7411 43.5919C10.4568 43.2815 10.478 42.7995 10.7884 42.5151C11.0988 42.2308 11.5808 42.252 11.8652 42.5623C12.4133 43.1608 12.9029 43.4608 13.3101 43.5969C13.7114 43.7311 14.0759 43.721 14.4065 43.6324C15.1022 43.4458 15.6758 42.899 15.9654 42.5272C16.1595 42.278 16.4773 42.1823 16.7642 42.2593Z" fill="#C28816" fill-opacity="0.8"/>
</g>
<path d="M19.9975 44.9985L12.5273 43.8345C12.2243 45.7793 13.5552 47.6015 15.5 47.9046L15.7137 47.9379L15.9274 47.9712C17.8722 48.2742 19.6944 46.9433 19.9975 44.9985Z" fill="url(#paint4_linear_1196_13137)"/>
<g filter="url(#filter8_ii_1196_13137)">
<path d="M15.8953 42.7464C16.0902 42.4962 16.41 42.4013 16.6978 42.4801C16.9365 42.5377 17.1428 42.7092 17.2343 42.957C17.3969 43.3993 17.7772 44.0946 18.383 44.4841C18.6709 44.6692 19.0151 44.7896 19.4382 44.784C19.8675 44.7782 20.4251 44.6414 21.1294 44.238C21.4945 44.029 21.9601 44.1559 22.1695 44.5207C22.3788 44.8861 22.2522 45.3516 21.8869 45.5609C21.0111 46.0625 20.2018 46.2982 19.4587 46.3082C18.7099 46.3182 18.075 46.099 17.5584 45.767C17.0087 45.4136 16.6025 44.9372 16.3095 44.4833C15.8926 44.8259 15.3616 45.1555 14.7315 45.3245C14.1383 45.4836 13.467 45.4994 12.7567 45.2619C12.0519 45.0262 11.3526 44.5554 10.671 43.8112C10.3869 43.5006 10.4078 43.0186 10.7182 42.7343C11.0286 42.4502 11.5107 42.4715 11.7951 42.7816C12.3431 43.38 12.8328 43.68 13.2399 43.8162C13.6413 43.9503 14.0057 43.9403 14.3364 43.8516C15.0321 43.665 15.6057 43.1183 15.8953 42.7464Z" fill="#292929"/>
</g>
<g filter="url(#filter9_ii_1196_13137)">
<ellipse cx="9.63813" cy="36.5951" rx="2.66273" ry="3.46948" transform="rotate(6.82 9.63813 36.5951)" fill="url(#paint5_radial_1196_13137)"/>
</g>
<g opacity="0.7" filter="url(#filter10_ii_1196_13137)">
<ellipse cx="0.693205" cy="0.876865" rx="0.693205" ry="0.876865" transform="matrix(0.450334 0.89286 -0.748209 0.663463 9.14062 33.5234)" fill="url(#paint6_linear_1196_13137)"/>
</g>
<ellipse cx="10.977" cy="35.2421" rx="0.416337" ry="0.624506" transform="rotate(-14.9009 10.977 35.2421)" fill="white"/>
<g filter="url(#filter11_ii_1196_13137)">
<circle cx="27.3555" cy="39.0965" r="3.75353" transform="rotate(6.82 27.3555 39.0965)" fill="url(#paint7_radial_1196_13137)"/>
</g>
<ellipse cx="29.3933" cy="37.7097" rx="0.450423" ry="0.675635" transform="rotate(-28.3961 29.3933 37.7097)" fill="white"/>
<g opacity="0.7" filter="url(#filter12_ii_1196_13137)">
<ellipse cx="25.9532" cy="37.2095" rx="0.859386" ry="1.04354" transform="rotate(47.2734 25.9532 37.2095)" fill="url(#paint8_linear_1196_13137)"/>
</g>
<g filter="url(#filter13_dii_1196_13137)">
<path d="M55.6177 36.8485C53.0215 34.0138 45.6759 36.4386 43.3872 38.5991C42.3198 39.6665 41.8481 39.8725 41.1757 42.4874C40.4896 45.156 41.4414 46.6233 41.71 47.2909C41.9785 47.9584 45.5487 54.3119 50.1121 54.5186C55.6576 54.7699 58.863 40.3917 55.6177 36.8485Z" fill="#D9D9D9"/>
<path d="M55.6177 36.8485C53.0215 34.0138 45.6759 36.4386 43.3872 38.5991C42.3198 39.6665 41.8481 39.8725 41.1757 42.4874C40.4896 45.156 41.4414 46.6233 41.71 47.2909C41.9785 47.9584 45.5487 54.3119 50.1121 54.5186C55.6576 54.7699 58.863 40.3917 55.6177 36.8485Z" fill="url(#paint9_linear_1196_13137)"/>
</g>
<defs>
<filter id="filter0_iii_1196_13137" x="63.3164" y="33.8511" width="19.0615" height="30.803" filterUnits="userSpaceOnUse" color-interpolation-filters="sRGB">
<feFlood flood-opacity="0" result="BackgroundImageFix"/>
<feBlend mode="normal" in="SourceGraphic" in2="BackgroundImageFix" result="shape"/>
<feColorMatrix in="SourceAlpha" type="matrix" values="0 0 0 0 0 0 0 0 0 0 0 0 0 0 0 0 0 0 127 0" result="hardAlpha"/>
<feOffset dx="3.04979" dy="-1.52489"/>
<feGaussianBlur stdDeviation="3.04979"/>
<feComposite in2="hardAlpha" operator="arithmetic" k2="-1" k3="1"/>
<feColorMatrix type="matrix" values="0 0 0 0 1 0 0 0 0 0.516667 0 0 0 0 0 0 0 0 1 0"/>
<feBlend mode="normal" in2="shape" result="effect1_innerShadow_1196_13137"/>
<feColorMatrix in="SourceAlpha" type="matrix" values="0 0 0 0 0 0 0 0 0 0 0 0 0 0 0 0 0 0 127 0" result="hardAlpha"/>
<feOffset dy="-1.52489"/>
<feGaussianBlur stdDeviation="2.28734"/>
<feComposite in2="hardAlpha" operator="arithmetic" k2="-1" k3="1"/>
<feColorMatrix type="matrix" values="0 0 0 0 1 0 0 0 0 0.936977 0 0 0 0 0.710092 0 0 0 1 0"/>
<feBlend mode="normal" in2="effect1_innerShadow_1196_13137" result="effect2_innerShadow_1196_13137"/>
<feColorMatrix in="SourceAlpha" type="matrix" values="0 0 0 0 0 0 0 0 0 0 0 0 0 0 0 0 0 0 127 0" result="hardAlpha"/>
<feOffset dy="1.82987"/>
<feGaussianBlur stdDeviation="0.914935"/>
<feComposite in2="hardAlpha" operator="arithmetic" k2="-1" k3="1"/>
<feColorMatrix type="matrix" values="0 0 0 0 1 0 0 0 0 0.909567 0 0 0 0 0.573674 0 0 0 1 0"/>
<feBlend mode="normal" in2="effect2_innerShadow_1196_13137" result="effect3_innerShadow_1196_13137"/>
</filter>
<filter id="filter1_i_1196_13137" x="28.668" y="2.05615" width="22.2153" height="14.9295" filterUnits="userSpaceOnUse" color-interpolation-filters="sRGB">
<feFlood flood-opacity="0" result="BackgroundImageFix"/>
<feBlend mode="normal" in="SourceGraphic" in2="BackgroundImageFix" result="shape"/>
<feColorMatrix in="SourceAlpha" type="matrix" values="0 0 0 0 0 0 0 0 0 0 0 0 0 0 0 0 0 0 127 0" result="hardAlpha"/>
<feOffset dx="0.457468" dy="1.82987"/>
<feGaussianBlur stdDeviation="0.914935"/>
<feComposite in2="hardAlpha" operator="arithmetic" k2="-1" k3="1"/>
<feColorMatrix type="matrix" values="0 0 0 0 1 0 0 0 0 0.952108 0 0 0 0 0.795128 0 0 0 1 0"/>
<feBlend mode="normal" in2="shape" result="effect1_innerShadow_1196_13137"/>
</filter>
<filter id="filter2_i_1196_13137" x="5.44141" y="8.67384" width="61.7619" height="56.5869" filterUnits="userSpaceOnUse" color-interpolation-filters="sRGB">
<feFlood flood-opacity="0" result="BackgroundImageFix"/>
<feBlend mode="normal" in="SourceGraphic" in2="BackgroundImageFix" result="shape"/>
<feColorMatrix in="SourceAlpha" type="matrix" values="0 0 0 0 0 0 0 0 0 0 0 0 0 0 0 0 0 0 127 0" result="hardAlpha"/>
<feOffset dx="0.152489" dy="-1.52489"/>
<feGaussianBlur stdDeviation="9.14935"/>
<feComposite in2="hardAlpha" operator="arithmetic" k2="-1" k3="1"/>
<feColorMatrix type="matrix" values="0 0 0 0 1 0 0 0 0 1 0 0 0 0 1 0 0 0 0.16 0"/>
<feBlend mode="normal" in2="shape" result="effect1_innerShadow_1196_13137"/>
</filter>
<filter id="filter3_f_1196_13137" x="21.4985" y="33.168" width="11.5615" height="11.4228" filterUnits="userSpaceOnUse" color-interpolation-filters="sRGB">
<feFlood flood-opacity="0" result="BackgroundImageFix"/>
<feBlend mode="normal" in="SourceGraphic" in2="BackgroundImageFix" result="shape"/>
<feGaussianBlur stdDeviation="0.762446" result="effect1_foregroundBlur_1196_13137"/>
</filter>
<filter id="filter4_f_1196_13137" x="5.32276" y="31.1611" width="8.57713" height="10.4795" filterUnits="userSpaceOnUse" color-interpolation-filters="sRGB">
<feFlood flood-opacity="0" result="BackgroundImageFix"/>
<feBlend mode="normal" in="SourceGraphic" in2="BackgroundImageFix" result="shape"/>
<feGaussianBlur stdDeviation="0.762446" result="effect1_foregroundBlur_1196_13137"/>
</filter>
<filter id="filter5_f_1196_13137" x="2.70856" y="7.84968" width="37.5047" height="37.3641" filterUnits="userSpaceOnUse" color-interpolation-filters="sRGB">
<feFlood flood-opacity="0" result="BackgroundImageFix"/>
<feBlend mode="normal" in="SourceGraphic" in2="BackgroundImageFix" result="shape"/>
<feGaussianBlur stdDeviation="5.33712" result="effect1_foregroundBlur_1196_13137"/>
</filter>
<filter id="filter6_f_1196_13137" x="0.0015316" y="33.7696" width="40.0907" height="37.1649" filterUnits="userSpaceOnUse" color-interpolation-filters="sRGB">
<feFlood flood-opacity="0" result="BackgroundImageFix"/>
<feBlend mode="normal" in="SourceGraphic" in2="BackgroundImageFix" result="shape"/>
<feGaussianBlur stdDeviation="5.33712" result="effect1_foregroundBlur_1196_13137"/>
</filter>
<filter id="filter7_f_1196_13137" x="9.01417" y="40.7085" width="14.8545" height="6.90525" filterUnits="userSpaceOnUse" color-interpolation-filters="sRGB">
<feFlood flood-opacity="0" result="BackgroundImageFix"/>
<feBlend mode="normal" in="SourceGraphic" in2="BackgroundImageFix" result="shape"/>
<feGaussianBlur stdDeviation="0.762446" result="effect1_foregroundBlur_1196_13137"/>
</filter>
<filter id="filter8_ii_1196_13137" x="10.4727" y="41.9957" width="11.7969" height="4.7704" filterUnits="userSpaceOnUse" color-interpolation-filters="sRGB">
<feFlood flood-opacity="0" result="BackgroundImageFix"/>
<feBlend mode="normal" in="SourceGraphic" in2="BackgroundImageFix" result="shape"/>
<feColorMatrix in="SourceAlpha" type="matrix" values="0 0 0 0 0 0 0 0 0 0 0 0 0 0 0 0 0 0 127 0" result="hardAlpha"/>
<feOffset dy="-0.609957"/>
<feGaussianBlur stdDeviation="0.228734"/>
<feComposite in2="hardAlpha" operator="arithmetic" k2="-1" k3="1"/>
<feColorMatrix type="matrix" values="0 0 0 0 0 0 0 0 0 0 0 0 0 0 0 0 0 0 1 0"/>
<feBlend mode="normal" in2="shape" result="effect1_innerShadow_1196_13137"/>
<feColorMatrix in="SourceAlpha" type="matrix" values="0 0 0 0 0 0 0 0 0 0 0 0 0 0 0 0 0 0 127 0" result="hardAlpha"/>
<feOffset dy="0.609957"/>
<feGaussianBlur stdDeviation="0.228734"/>
<feComposite in2="hardAlpha" operator="arithmetic" k2="-1" k3="1"/>
<feColorMatrix type="matrix" values="0 0 0 0 0 0 0 0 0 0 0 0 0 0 0 0 0 0 1 0"/>
<feBlend mode="normal" in2="effect1_innerShadow_1196_13137" result="effect2_innerShadow_1196_13137"/>
</filter>
<filter id="filter9_ii_1196_13137" x="6.96094" y="32.7189" width="5.35156" height="7.75211" filterUnits="userSpaceOnUse" color-interpolation-filters="sRGB">
<feFlood flood-opacity="0" result="BackgroundImageFix"/>
<feBlend mode="normal" in="SourceGraphic" in2="BackgroundImageFix" result="shape"/>
<feColorMatrix in="SourceAlpha" type="matrix" values="0 0 0 0 0 0 0 0 0 0 0 0 0 0 0 0 0 0 127 0" result="hardAlpha"/>
<feOffset dy="0.416337"/>
<feGaussianBlur stdDeviation="0.277558"/>
<feComposite in2="hardAlpha" operator="arithmetic" k2="-1" k3="1"/>
<feColorMatrix type="matrix" values="0 0 0 0 0 0 0 0 0 0 0 0 0 0 0 0 0 0 1 0"/>
<feBlend mode="normal" in2="shape" result="effect1_innerShadow_1196_13137"/>
<feColorMatrix in="SourceAlpha" type="matrix" values="0 0 0 0 0 0 0 0 0 0 0 0 0 0 0 0 0 0 127 0" result="hardAlpha"/>
<feOffset dy="-0.416337"/>
<feGaussianBlur stdDeviation="0.277558"/>
<feComposite in2="hardAlpha" operator="arithmetic" k2="-1" k3="1"/>
<feColorMatrix type="matrix" values="0 0 0 0 0 0 0 0 0 0 0 0 0 0 0 0 0 0 1 0"/>
<feBlend mode="normal" in2="effect1_innerShadow_1196_13137" result="effect2_innerShadow_1196_13137"/>
</filter>
<filter id="filter10_ii_1196_13137" x="8.07031" y="33.5695" width="1.45312" height="2.30918" filterUnits="userSpaceOnUse" color-interpolation-filters="sRGB">
<feFlood flood-opacity="0" result="BackgroundImageFix"/>
<feBlend mode="normal" in="SourceGraphic" in2="BackgroundImageFix" result="shape"/>
<feColorMatrix in="SourceAlpha" type="matrix" values="0 0 0 0 0 0 0 0 0 0 0 0 0 0 0 0 0 0 127 0" result="hardAlpha"/>
<feOffset dy="0.457468"/>
<feGaussianBlur stdDeviation="0.152489"/>
<feComposite in2="hardAlpha" operator="arithmetic" k2="-1" k3="1"/>
<feColorMatrix type="matrix" values="0 0 0 0 1 0 0 0 0 1 0 0 0 0 1 0 0 0 1 0"/>
<feBlend mode="normal" in2="shape" result="effect1_innerShadow_1196_13137"/>
<feColorMatrix in="SourceAlpha" type="matrix" values="0 0 0 0 0 0 0 0 0 0 0 0 0 0 0 0 0 0 127 0" result="hardAlpha"/>
<feOffset dy="-0.304979"/>
<feGaussianBlur stdDeviation="0.152489"/>
<feComposite in2="hardAlpha" operator="arithmetic" k2="-1" k3="1"/>
<feColorMatrix type="matrix" values="0 0 0 0 1 0 0 0 0 1 0 0 0 0 1 0 0 0 1 0"/>
<feBlend mode="normal" in2="effect1_innerShadow_1196_13137" result="effect2_innerShadow_1196_13137"/>
</filter>
<filter id="filter11_ii_1196_13137" x="23.6016" y="34.8924" width="7.50781" height="8.40865" filterUnits="userSpaceOnUse" color-interpolation-filters="sRGB">
<feFlood flood-opacity="0" result="BackgroundImageFix"/>
<feBlend mode="normal" in="SourceGraphic" in2="BackgroundImageFix" result="shape"/>
<feColorMatrix in="SourceAlpha" type="matrix" values="0 0 0 0 0 0 0 0 0 0 0 0 0 0 0 0 0 0 127 0" result="hardAlpha"/>
<feOffset dy="0.450421"/>
<feGaussianBlur stdDeviation="0.300281"/>
<feComposite in2="hardAlpha" operator="arithmetic" k2="-1" k3="1"/>
<feColorMatrix type="matrix" values="0 0 0 0 0 0 0 0 0 0 0 0 0 0 0 0 0 0 1 0"/>
<feBlend mode="normal" in2="shape" result="effect1_innerShadow_1196_13137"/>
<feColorMatrix in="SourceAlpha" type="matrix" values="0 0 0 0 0 0 0 0 0 0 0 0 0 0 0 0 0 0 127 0" result="hardAlpha"/>
<feOffset dy="-0.450421"/>
<feGaussianBlur stdDeviation="0.300281"/>
<feComposite in2="hardAlpha" operator="arithmetic" k2="-1" k3="1"/>
<feColorMatrix type="matrix" values="0 0 0 0 0 0 0 0 0 0 0 0 0 0 0 0 0 0 1 0"/>
<feBlend mode="normal" in2="effect1_innerShadow_1196_13137" result="effect2_innerShadow_1196_13137"/>
</filter>
<filter id="filter12_ii_1196_13137" x="24.9883" y="35.9605" width="1.92969" height="2.49802" filterUnits="userSpaceOnUse" color-interpolation-filters="sRGB">
<feFlood flood-opacity="0" result="BackgroundImageFix"/>
<feBlend mode="normal" in="SourceGraphic" in2="BackgroundImageFix" result="shape"/>
<feColorMatrix in="SourceAlpha" type="matrix" values="0 0 0 0 0 0 0 0 0 0 0 0 0 0 0 0 0 0 127 0" result="hardAlpha"/>
<feOffset dy="0.450421"/>
<feGaussianBlur stdDeviation="0.15014"/>
<feComposite in2="hardAlpha" operator="arithmetic" k2="-1" k3="1"/>
<feColorMatrix type="matrix" values="0 0 0 0 1 0 0 0 0 1 0 0 0 0 1 0 0 0 1 0"/>
<feBlend mode="normal" in2="shape" result="effect1_innerShadow_1196_13137"/>
<feColorMatrix in="SourceAlpha" type="matrix" values="0 0 0 0 0 0 0 0 0 0 0 0 0 0 0 0 0 0 127 0" result="hardAlpha"/>
<feOffset dy="-0.30028"/>
<feGaussianBlur stdDeviation="0.15014"/>
<feComposite in2="hardAlpha" operator="arithmetic" k2="-1" k3="1"/>
<feColorMatrix type="matrix" values="0 0 0 0 1 0 0 0 0 1 0 0 0 0 1 0 0 0 1 0"/>
<feBlend mode="normal" in2="effect1_innerShadow_1196_13137" result="effect2_innerShadow_1196_13137"/>
</filter>
<filter id="filter13_dii_1196_13137" x="39.4087" y="33.4267" width="22.0839" height="22.9252" filterUnits="userSpaceOnUse" color-interpolation-filters="sRGB">
<feFlood flood-opacity="0" result="BackgroundImageFix"/>
<feColorMatrix in="SourceAlpha" type="matrix" values="0 0 0 0 0 0 0 0 0 0 0 0 0 0 0 0 0 0 127 0" result="hardAlpha"/>
<feOffset dy="-0.609957"/>
<feGaussianBlur stdDeviation="0.762446"/>
<feComposite in2="hardAlpha" operator="out"/>
<feColorMatrix type="matrix" values="0 0 0 0 0.861741 0 0 0 0 0.457291 0 0 0 0 0.080416 0 0 0 0.6 0"/>
<feBlend mode="normal" in2="BackgroundImageFix" result="effect1_dropShadow_1196_13137"/>
<feBlend mode="normal" in="SourceGraphic" in2="effect1_dropShadow_1196_13137" result="shape"/>
<feColorMatrix in="SourceAlpha" type="matrix" values="0 0 0 0 0 0 0 0 0 0 0 0 0 0 0 0 0 0 127 0" result="hardAlpha"/>
<feOffset dx="6.09957"/>
<feGaussianBlur stdDeviation="2.28734"/>
<feComposite in2="hardAlpha" operator="arithmetic" k2="-1" k3="1"/>
<feColorMatrix type="matrix" values="0 0 0 0 1 0 0 0 0 0.482353 0 0 0 0 0 0 0 0 0.7 0"/>
<feBlend mode="normal" in2="shape" result="effect2_innerShadow_1196_13137"/>
<feColorMatrix in="SourceAlpha" type="matrix" values="0 0 0 0 0 0 0 0 0 0 0 0 0 0 0 0 0 0 127 0" result="hardAlpha"/>
<feOffset dy="1.82987"/>
<feGaussianBlur stdDeviation="1.52489"/>
<feComposite in2="hardAlpha" operator="arithmetic" k2="-1" k3="1"/>
<feColorMatrix type="matrix" values="0 0 0 0 1 0 0 0 0 0.909567 0 0 0 0 0.573674 0 0 0 1 0"/>
<feBlend mode="normal" in2="effect2_innerShadow_1196_13137" result="effect3_innerShadow_1196_13137"/>
</filter>
<linearGradient id="paint0_linear_1196_13137" x1="75.394" y1="45.4674" x2="61.0856" y2="43.1808" gradientUnits="userSpaceOnUse">
<stop stop-color="#FFCE4A"/>
<stop offset="1" stop-color="#FF7B00"/>
</linearGradient>
<linearGradient id="paint1_linear_1196_13137" x1="38.2164" y1="4.24718" x2="36.1499" y2="12.2274" gradientUnits="userSpaceOnUse">
<stop stop-color="#FFCE4A"/>
<stop offset="1" stop-color="#FF7B00"/>
</linearGradient>
<radialGradient id="paint2_radial_1196_13137" cx="0" cy="0" r="1" gradientTransform="matrix(13.776 51.1903 -51.429 11.2662 22.5792 27.1704)" gradientUnits="userSpaceOnUse">
<stop stop-color="#FFF49F"/>
<stop offset="0.282108" stop-color="#FFCF4B"/>
<stop offset="0.540116" stop-color="#FFA71A"/>
<stop offset="0.87017" stop-color="#C98922"/>
</radialGradient>
<radialGradient id="paint3_radial_1196_13137" cx="0" cy="0" r="1" gradientTransform="matrix(72.3607 18.2021 -11.1122 77.726 33.6193 13.979)" gradientUnits="userSpaceOnUse">
<stop offset="0.358983" stop-color="white" stop-opacity="0"/>
<stop offset="0.600938" stop-color="#E8E8E8" stop-opacity="0.9"/>
<stop offset="0.692716" stop-color="#EEEEEE"/>
<stop offset="0.8045" stop-color="#EEEEEE"/>
</radialGradient>
<linearGradient id="paint4_linear_1196_13137" x1="16.2624" y1="44.4165" x2="16.3537" y2="48.496" gradientUnits="userSpaceOnUse">
<stop stop-color="#340808"/>
<stop offset="1" stop-color="#ED8476"/>
</linearGradient>
<radialGradient id="paint5_radial_1196_13137" cx="0" cy="0" r="1" gradientTransform="matrix(-0.24579 3.78489 -2.90479 -0.310628 9.92489 36.2797)" gradientUnits="userSpaceOnUse">
<stop stop-color="#292929"/>
<stop offset="1"/>
</radialGradient>
<linearGradient id="paint6_linear_1196_13137" x1="0.200718" y1="0.20432" x2="1.86292" y2="0.554031" gradientUnits="userSpaceOnUse">
<stop stop-color="white"/>
<stop offset="1" stop-color="white" stop-opacity="0.8"/>
</linearGradient>
<radialGradient id="paint7_radial_1196_13137" cx="0" cy="0" r="1" gradientTransform="matrix(-0.346479 4.09476 -4.09476 -0.336059 27.7597 38.7553)" gradientUnits="userSpaceOnUse">
<stop stop-color="#292929"/>
<stop offset="1"/>
</radialGradient>
<linearGradient id="paint8_linear_1196_13137" x1="25.3427" y1="36.4091" x2="27.3959" y2="36.8591" gradientUnits="userSpaceOnUse">
<stop stop-color="white"/>
<stop offset="1" stop-color="white" stop-opacity="0.8"/>
</linearGradient>
<linearGradient id="paint9_linear_1196_13137" x1="53.1956" y1="42.7003" x2="40.0815" y2="39.1864" gradientUnits="userSpaceOnUse">
<stop stop-color="#FFCE4A"/>
<stop offset="1" stop-color="#FF7B00"/>
</linearGradient>
</defs>
</svg>
