<svg width="85" height="96" viewBox="0 0 85 96" fill="none" xmlns="http://www.w3.org/2000/svg">
<g filter="url(#filter0_ii_1196_13164)">
<path d="M24.0927 75.0722C24.3838 78.3128 27.2828 79.0924 28.5079 79.1029C30.7276 79.406 32.7707 78.8164 33.4757 78.6488L34.3963 82.3612C33.5811 83.0066 30.8767 84.0037 26.5807 82.8289C19.2572 80.5403 20.741 74.2697 20.1846 72.2824C19.6281 70.2951 17.6181 69.7536 16.1798 70.2986C14.7416 70.8437 13.6647 69.6348 13.963 68.5213C14.3528 67.0669 16.7611 65.7842 18.9207 66.3629C22.6315 67.3572 23.7004 70.704 24.0927 75.0722Z" fill="#F9B65B"/>
</g>
<g filter="url(#filter1_i_1196_13164)">
<path d="M24.8242 75.3827C24.8242 67.2012 31.4566 60.5688 39.6381 60.5688H44.7736C52.9551 60.5688 59.5875 67.2012 59.5875 75.3827C59.5875 83.5642 52.9551 90.1966 44.7736 90.1966H39.6381C31.4566 90.1966 24.8242 83.5642 24.8242 75.3827Z" fill="url(#paint0_radial_1196_13164)"/>
</g>
<g filter="url(#filter2_d_1196_13164)">
<path d="M34.8398 72.6544C34.8398 68.451 38.2474 65.0435 42.4507 65.0435C46.6541 65.0435 50.0616 68.451 50.0616 72.6544V80.1395C50.0616 83.6133 47.2455 86.4294 43.7716 86.4294H41.1298C37.656 86.4294 34.8398 83.6133 34.8398 80.1395V72.6544Z" fill="url(#paint1_radial_1196_13164)"/>
<path d="M34.8398 72.6544C34.8398 68.451 38.2474 65.0435 42.4507 65.0435C46.6541 65.0435 50.0616 68.451 50.0616 72.6544V80.1395C50.0616 83.6133 47.2455 86.4294 43.7716 86.4294H41.1298C37.656 86.4294 34.8398 83.6133 34.8398 80.1395V72.6544Z" fill="url(#paint2_radial_1196_13164)"/>
</g>
<g filter="url(#filter3_dii_1196_13164)">
<path d="M26.7878 75.1356C25.336 70.9983 27.094 66.9427 28.223 65.3674C28.949 64.3546 29.8538 63.0148 31.1734 62.8204C32.5161 62.6226 34.9073 64.2823 34.7056 65.3674C33.906 67.9737 33.5603 72.1531 37.4238 73.3591C41.3379 74.581 41.8169 77.2562 40.7387 79.5446C39.5138 82.144 35.8138 82.4182 33.2146 81.675C30.7336 80.9657 28.3631 79.6251 26.7878 75.1356Z" fill="#F9B65B"/>
</g>
<g filter="url(#filter4_dii_1196_13164)">
<path d="M57.4738 75.1356C58.9256 70.9983 57.1676 66.9427 56.0386 65.3674C55.3126 64.3546 54.4078 63.0148 53.0882 62.8204C51.7455 62.6226 49.3543 64.2823 49.556 65.3674C50.3556 67.9737 50.7013 72.1531 46.8378 73.3591C42.9237 74.581 42.4447 77.2562 43.5229 79.5446C44.7478 82.144 48.4478 82.4182 51.047 81.675C53.528 80.9657 55.8985 79.6251 57.4738 75.1356Z" fill="#F9B65B"/>
</g>
<g filter="url(#filter5_ii_1196_13164)">
<rect x="21.1875" y="81.1089" width="13.5758" height="15.7858" rx="6.78791" transform="rotate(-24.7132 21.1875 81.1089)" fill="#FFE0D2"/>
<rect x="21.1875" y="81.1089" width="13.5758" height="15.7858" rx="6.78791" transform="rotate(-24.7132 21.1875 81.1089)" fill="url(#paint3_linear_1196_13164)"/>
</g>
<g filter="url(#filter6_ii_1196_13164)">
<rect width="13.5758" height="15.7858" rx="6.78791" transform="matrix(-0.908412 -0.418076 -0.418076 0.908412 63.1875 81.1089)" fill="#FFE0D2"/>
<rect width="13.5758" height="15.7858" rx="6.78791" transform="matrix(-0.908412 -0.418076 -0.418076 0.908412 63.1875 81.1089)" fill="url(#paint4_linear_1196_13164)"/>
</g>
<g filter="url(#filter7_f_1196_13164)">
<ellipse cx="42.1176" cy="65.9749" rx="14.0238" ry="7.5057" fill="#964C1C" fill-opacity="0.6"/>
</g>
<g filter="url(#filter8_i_1196_13164)">
<path d="M1.18832 39.8688C5.38691 30.4035 15.9784 32.8808 19.3354 33.6963L22.8956 53.5898C20.9991 56.4615 15.0192 60.8223 7.26386 57.5251C1.29004 54.9853 -1.87849 46.7826 1.18832 39.8688Z" fill="url(#paint5_linear_1196_13164)"/>
</g>
<g filter="url(#filter9_dd_1196_13164)">
<path d="M5.47597 42.3734C7.94437 36.9515 14.1713 38.3706 16.1449 38.8377L17.1914 44.5353L18.2379 50.233C17.123 51.878 13.6073 54.3759 9.04785 52.4872C5.53577 51.0324 3.67295 46.3337 5.47597 42.3734Z" fill="url(#paint6_radial_1196_13164)"/>
</g>
<g filter="url(#filter10_i_1196_13164)">
<path d="M83.2073 39.8688C79.0087 30.4035 68.4171 32.8808 65.0602 33.6963L61.5 53.5898C63.3964 56.4615 69.3764 60.8223 77.1317 57.5251C83.1055 54.9853 86.2741 46.7826 83.2073 39.8688Z" fill="url(#paint7_linear_1196_13164)"/>
</g>
<g filter="url(#filter11_dd_1196_13164)">
<path d="M78.9104 42.3734C76.442 36.9515 70.2151 38.3706 68.2415 38.8377L66.1484 50.233C67.2634 51.878 70.7791 54.3759 75.3385 52.4872C78.8506 51.0324 80.7134 46.3337 78.9104 42.3734Z" fill="url(#paint8_radial_1196_13164)"/>
</g>
<g filter="url(#filter12_f_1196_13164)">
<ellipse cx="68.4981" cy="46.0486" rx="11.0709" ry="4.74044" transform="rotate(-85.1563 68.4981 46.0486)" fill="#EE9467"/>
</g>
<g filter="url(#filter13_f_1196_13164)">
<ellipse cx="11.0709" cy="4.74044" rx="11.0709" ry="4.74044" transform="matrix(-0.103456 -0.994634 -0.994634 0.103456 21.5859 56.5708)" fill="#EE9467"/>
</g>
<path d="M71.8415 42.5917C71.8415 58.1909 61.3599 70.9069 42.2137 70.8367C23.0675 70.837 12.5859 58.1909 12.5859 42.5917C12.5859 26.9924 25.1638 14.3467 42.2137 14.3467C59.2636 14.3467 71.8415 26.9924 71.8415 42.5917Z" fill="url(#paint9_radial_1196_13164)"/>
<g filter="url(#filter14_f_1196_13164)">
<ellipse cx="32.0069" cy="21.8761" rx="4.76365" ry="3.21399" transform="rotate(-12.4029 32.0069 21.8761)" fill="white"/>
</g>
<g filter="url(#filter15_dii_1196_13164)">
<path d="M41.0968 31.2404C41.744 31.6768 42.6873 31.6768 43.3345 31.2404C46.0616 29.4017 51.2607 28.7055 55.8039 29.9297C63.2807 31.9445 66.9469 39.3778 66.9469 48.8811C66.9469 60.1508 57.6619 69.321 42.2157 69.3208C26.7694 69.321 17.4844 60.1508 17.4844 48.8811C17.4844 39.3778 21.1506 31.9445 28.6275 29.9297C33.1707 28.7055 38.3697 29.4017 41.0968 31.2404Z" fill="url(#paint10_radial_1196_13164)"/>
</g>
<path d="M45.036 17.3872L50.9485 4.72197" stroke="url(#paint11_linear_1196_13164)" stroke-width="1.258"/>
<g filter="url(#filter16_iii_1196_13164)">
<path d="M66.5986 0.195629C59.9683 -0.785583 53.4927 2.14481 50.4995 4.08628C50.1339 4.32342 50.0758 4.82609 50.356 5.15988C57.3713 13.5184 61.0016 15.7332 68.8924 15.796C74.2357 15.8385 78.6692 13.4421 81.0401 11.6118C81.546 11.2212 81.2865 10.4337 80.6855 10.2162C75.9407 8.49959 74.7368 1.39998 66.5986 0.195629Z" fill="url(#paint12_linear_1196_13164)"/>
</g>
<mask id="mask0_1196_13164" style="mask-type:alpha" maskUnits="userSpaceOnUse" x="50" y="0" width="32" height="16">
<path d="M66.583 0.196117C59.9526 -0.785095 53.477 2.14529 50.4838 4.08677C50.1182 4.32391 50.0602 4.82657 50.3404 5.16037C57.3557 13.5189 60.986 15.7337 68.8768 15.7965C74.2201 15.839 78.6535 13.4426 81.0245 11.6123C81.5303 11.2217 81.2708 10.4341 80.6699 10.2167C75.9251 8.50007 74.7211 1.40047 66.583 0.196117Z" fill="url(#paint13_linear_1196_13164)"/>
</mask>
<g mask="url(#mask0_1196_13164)">
<g filter="url(#filter17_d_1196_13164)">
<path d="M48.918 4.54044C51.8611 4.42348 56.7805 4.26862 61.5405 5.80362C66.4598 7.39 69.686 10.0844 73.5411 10.8563C77.3963 11.6283 81.0111 10.9451 81.5085 10.5943" stroke="url(#paint14_linear_1196_13164)" stroke-width="0.7548"/>
</g>
</g>
<g filter="url(#filter18_ii_1196_13164)">
<path d="M38.808 11.5984C40.8026 13.3187 39.599 15.0608 38.4113 16.4774C37.8137 17.1902 38.2481 18.1227 39.1766 18.1789L43.9415 18.4671C44.4363 18.497 44.9114 18.2364 45.0954 17.7762C46.4543 14.3769 45.1214 10.7881 42.0001 9.58113C39.3906 8.57203 36.6361 9.72502 38.808 11.5984Z" fill="url(#paint15_linear_1196_13164)"/>
</g>
<g filter="url(#filter19_ii_1196_13164)">
<path d="M45.9156 14.2147C46.091 15.6198 45.9343 16.5095 45.6398 17.2057C45.2799 18.0567 45.6748 19.0277 46.593 19.1316L48.7664 19.3777C49.3992 19.4493 49.9951 19.0366 50.0912 18.407C50.5024 15.7152 49.7267 14.4128 48.5552 12.9617C47.5904 11.7665 45.6509 12.095 45.9156 14.2147Z" fill="#F1AF5C"/>
<path d="M45.9156 14.2147C46.091 15.6198 45.9343 16.5095 45.6398 17.2057C45.2799 18.0567 45.6748 19.0277 46.593 19.1316L48.7664 19.3777C49.3992 19.4493 49.9951 19.0366 50.0912 18.407C50.5024 15.7152 49.7267 14.4128 48.5552 12.9617C47.5904 11.7665 45.6509 12.095 45.9156 14.2147Z" fill="url(#paint16_linear_1196_13164)"/>
</g>
<path d="M43.3976 53.4556C43.3976 53.8919 42.867 54.2457 42.2125 54.2457C41.5579 54.2457 41.0273 53.8919 41.0273 53.4556C41.0273 53.0193 41.5579 52.6655 42.2125 52.6655C42.867 52.6655 43.3976 53.0193 43.3976 53.4556Z" fill="url(#paint17_radial_1196_13164)"/>
<g filter="url(#filter20_f_1196_13164)">
<path d="M42.4902 55.4331C42.6913 55.4507 42.8809 55.5638 42.9863 55.7534C43.1751 56.0932 43.5729 56.6115 44.1162 56.8521C44.3745 56.9663 44.6704 57.0208 45.0146 56.9624C45.3637 56.903 45.8008 56.7212 46.3232 56.3032C46.5945 56.0866 46.9911 56.1307 47.208 56.4019C47.4245 56.673 47.3801 57.0687 47.1094 57.2856C46.4596 57.8055 45.8298 58.0999 45.2256 58.2026C44.6164 58.306 44.0707 58.2074 43.6074 58.0024C43.1139 57.784 42.7206 57.4477 42.4238 57.1147C42.1271 57.4474 41.7353 57.7842 41.2422 58.0024C40.7788 58.2075 40.2333 58.306 39.624 58.2026C39.0197 58.1 38.3902 57.8056 37.7402 57.2856C37.4692 57.0687 37.425 56.6731 37.6416 56.4019C37.8586 56.1308 38.2552 56.0864 38.5264 56.3032C39.0491 56.7214 39.4858 56.9031 39.835 56.9624C40.1793 57.0208 40.4751 56.9664 40.7334 56.8521C41.2766 56.6115 41.6745 56.0932 41.8633 55.7534C41.9688 55.5638 42.1582 55.4505 42.3594 55.4331H42.4902Z" fill="#D08061"/>
</g>
<path d="M45.1756 57.0132H39.25C39.25 58.5404 40.488 59.7784 42.0153 59.7784H42.4103C43.9375 59.7784 45.1756 58.5404 45.1756 57.0132Z" fill="url(#paint18_linear_1196_13164)"/>
<g filter="url(#filter21_ii_1196_13164)">
<path d="M42.1983 55.4312C42.4213 55.4291 42.6386 55.5462 42.7546 55.7548C42.9434 56.0947 43.3412 56.6135 43.8845 56.8539C44.1428 56.9682 44.4387 57.0223 44.783 56.9639C45.1322 56.9046 45.5692 56.7228 46.0919 56.3046C46.3632 56.0876 46.7591 56.1317 46.9761 56.403C47.1928 56.6742 47.1489 57.0698 46.8778 57.2868C46.2277 57.8069 45.598 58.1015 44.9936 58.2042C44.3844 58.3075 43.839 58.2093 43.3757 58.0043C42.8842 57.7868 42.4915 57.4527 42.1952 57.1209C41.8989 57.4526 41.5068 57.7869 41.0155 58.0043C40.5522 58.2093 40.0067 58.3075 39.3975 58.2042C38.7931 58.1015 38.1635 57.8068 37.5134 57.2868C37.2423 57.0698 37.1982 56.6742 37.415 56.403C37.632 56.1317 38.028 56.0876 38.2992 56.3046C38.822 56.7228 39.259 56.9046 39.6082 56.9639C39.9524 57.0223 40.2483 56.9682 40.5066 56.8539C41.05 56.6134 41.4478 56.0947 41.6366 55.7548C41.7526 55.5461 41.9697 55.429 42.1929 55.4312H42.1983Z" fill="#292929"/>
</g>
<g filter="url(#filter22_f_1196_13164)">
<path d="M54.8455 59.7606C52.0094 59.7288 49.7282 58.1114 49.7502 56.148C49.7721 54.1845 52.0891 52.6186 54.9251 52.6504C57.7612 52.6821 60.0425 54.2996 60.0205 56.263C59.9985 58.2264 57.6816 59.7924 54.8455 59.7606Z" fill="#FF4649" fill-opacity="0.6"/>
</g>
<g filter="url(#filter23_f_1196_13164)">
<path d="M29.5721 59.4388C26.736 59.4071 24.4547 57.7896 24.4767 55.8262C24.4987 53.8628 26.8156 52.2968 29.6517 52.3286C32.4878 52.3604 34.769 53.9778 34.747 55.9412C34.725 57.9046 32.4081 59.4706 29.5721 59.4388Z" fill="#FF4649" fill-opacity="0.6"/>
</g>
<g filter="url(#filter24_f_1196_13164)">
<circle cx="50.903" cy="50.6925" r="3.55533" fill="#E4AE99"/>
</g>
<g filter="url(#filter25_f_1196_13164)">
<circle cx="32.7311" cy="50.6925" r="3.55533" fill="#E4AE99"/>
</g>
<g filter="url(#filter26_ii_1196_13164)">
<circle cx="33.129" cy="50.695" r="3.1603" fill="url(#paint19_radial_1196_13164)"/>
</g>
<ellipse cx="34.6926" cy="49.3286" rx="0.379235" ry="0.568853" transform="rotate(-35.2161 34.6926 49.3286)" fill="white"/>
<g opacity="0.7" filter="url(#filter27_ii_1196_13164)">
<ellipse cx="31.7735" cy="49.2533" rx="0.723563" ry="0.878613" transform="rotate(40.4534 31.7735 49.2533)" fill="url(#paint20_linear_1196_13164)"/>
</g>
<g filter="url(#filter28_ii_1196_13164)">
<circle cx="51.2931" cy="50.695" r="3.1603" fill="url(#paint21_radial_1196_13164)"/>
</g>
<ellipse cx="52.8605" cy="49.3286" rx="0.379235" ry="0.568853" transform="rotate(-35.2161 52.8605 49.3286)" fill="white"/>
<g opacity="0.7" filter="url(#filter29_ii_1196_13164)">
<ellipse cx="49.9415" cy="49.2533" rx="0.723563" ry="0.878613" transform="rotate(40.4534 49.9415 49.2533)" fill="url(#paint22_linear_1196_13164)"/>
</g>
<defs>
<filter id="filter0_ii_1196_13164" x="13.9141" y="64.2079" width="20.6063" height="20.1715" filterUnits="userSpaceOnUse" color-interpolation-filters="sRGB">
<feFlood flood-opacity="0" result="BackgroundImageFix"/>
<feBlend mode="normal" in="SourceGraphic" in2="BackgroundImageFix" result="shape"/>
<feColorMatrix in="SourceAlpha" type="matrix" values="0 0 0 0 0 0 0 0 0 0 0 0 0 0 0 0 0 0 127 0" result="hardAlpha"/>
<feOffset dx="0.1258" dy="-2.0128"/>
<feGaussianBlur stdDeviation="1.0064"/>
<feComposite in2="hardAlpha" operator="arithmetic" k2="-1" k3="1"/>
<feColorMatrix type="matrix" values="0 0 0 0 0.976471 0 0 0 0 0.556863 0 0 0 0 0.282353 0 0 0 1 0"/>
<feBlend mode="normal" in2="shape" result="effect1_innerShadow_1196_13164"/>
<feColorMatrix in="SourceAlpha" type="matrix" values="0 0 0 0 0 0 0 0 0 0 0 0 0 0 0 0 0 0 127 0" result="hardAlpha"/>
<feOffset dx="0.1258" dy="1.0064"/>
<feGaussianBlur stdDeviation="0.7548"/>
<feComposite in2="hardAlpha" operator="arithmetic" k2="-1" k3="1"/>
<feColorMatrix type="matrix" values="0 0 0 0 1 0 0 0 0 0.918188 0 0 0 0 0.789626 0 0 0 1 0"/>
<feBlend mode="normal" in2="effect1_innerShadow_1196_13164" result="effect2_innerShadow_1196_13164"/>
</filter>
<filter id="filter1_i_1196_13164" x="24.5726" y="59.9398" width="35.0133" height="30.2569" filterUnits="userSpaceOnUse" color-interpolation-filters="sRGB">
<feFlood flood-opacity="0" result="BackgroundImageFix"/>
<feBlend mode="normal" in="SourceGraphic" in2="BackgroundImageFix" result="shape"/>
<feColorMatrix in="SourceAlpha" type="matrix" values="0 0 0 0 0 0 0 0 0 0 0 0 0 0 0 0 0 0 127 0" result="hardAlpha"/>
<feMorphology radius="0.2516" operator="erode" in="SourceAlpha" result="effect1_innerShadow_1196_13164"/>
<feOffset dx="-0.2516" dy="-0.629"/>
<feGaussianBlur stdDeviation="1.5096"/>
<feComposite in2="hardAlpha" operator="arithmetic" k2="-1" k3="1"/>
<feColorMatrix type="matrix" values="0 0 0 0 0.933237 0 0 0 0 0.503808 0 0 0 0 0.21212 0 0 0 1 0"/>
<feBlend mode="normal" in2="shape" result="effect1_innerShadow_1196_13164"/>
</filter>
<filter id="filter2_d_1196_13164" x="33.5818" y="64.2887" width="17.7387" height="23.9022" filterUnits="userSpaceOnUse" color-interpolation-filters="sRGB">
<feFlood flood-opacity="0" result="BackgroundImageFix"/>
<feColorMatrix in="SourceAlpha" type="matrix" values="0 0 0 0 0 0 0 0 0 0 0 0 0 0 0 0 0 0 127 0" result="hardAlpha"/>
<feOffset dy="0.5032"/>
<feGaussianBlur stdDeviation="0.629"/>
<feComposite in2="hardAlpha" operator="out"/>
<feColorMatrix type="matrix" values="0 0 0 0 0.909804 0 0 0 0 0.494118 0 0 0 0 0.211765 0 0 0 1 0"/>
<feBlend mode="normal" in2="BackgroundImageFix" result="effect1_dropShadow_1196_13164"/>
<feBlend mode="normal" in="SourceGraphic" in2="effect1_dropShadow_1196_13164" result="shape"/>
</filter>
<filter id="filter3_dii_1196_13164" x="25.4835" y="59.0302" width="16.5096" height="26.778" filterUnits="userSpaceOnUse" color-interpolation-filters="sRGB">
<feFlood flood-opacity="0" result="BackgroundImageFix"/>
<feColorMatrix in="SourceAlpha" type="matrix" values="0 0 0 0 0 0 0 0 0 0 0 0 0 0 0 0 0 0 127 0" result="hardAlpha"/>
<feOffset dy="0.5032"/>
<feGaussianBlur stdDeviation="0.3774"/>
<feComposite in2="hardAlpha" operator="out"/>
<feColorMatrix type="matrix" values="0 0 0 0 0.752941 0 0 0 0 0.34902 0 0 0 0 0.0705882 0 0 0 1 0"/>
<feBlend mode="normal" in2="BackgroundImageFix" result="effect1_dropShadow_1196_13164"/>
<feBlend mode="normal" in="SourceGraphic" in2="effect1_dropShadow_1196_13164" result="shape"/>
<feColorMatrix in="SourceAlpha" type="matrix" values="0 0 0 0 0 0 0 0 0 0 0 0 0 0 0 0 0 0 127 0" result="hardAlpha"/>
<feOffset dx="-0.5032" dy="3.774"/>
<feGaussianBlur stdDeviation="1.887"/>
<feComposite in2="hardAlpha" operator="arithmetic" k2="-1" k3="1"/>
<feColorMatrix type="matrix" values="0 0 0 0 1 0 0 0 0 0.73978 0 0 0 0 0.563026 0 0 0 1 0"/>
<feBlend mode="normal" in2="shape" result="effect2_innerShadow_1196_13164"/>
<feColorMatrix in="SourceAlpha" type="matrix" values="0 0 0 0 0 0 0 0 0 0 0 0 0 0 0 0 0 0 127 0" result="hardAlpha"/>
<feOffset dy="-3.774"/>
<feGaussianBlur stdDeviation="1.887"/>
<feComposite in2="hardAlpha" operator="arithmetic" k2="-1" k3="1"/>
<feColorMatrix type="matrix" values="0 0 0 0 0.911283 0 0 0 0 0.494269 0 0 0 0 0.211015 0 0 0 1 0"/>
<feBlend mode="normal" in2="effect2_innerShadow_1196_13164" result="effect3_innerShadow_1196_13164"/>
</filter>
<filter id="filter4_dii_1196_13164" x="42.2686" y="59.0302" width="16.5096" height="26.778" filterUnits="userSpaceOnUse" color-interpolation-filters="sRGB">
<feFlood flood-opacity="0" result="BackgroundImageFix"/>
<feColorMatrix in="SourceAlpha" type="matrix" values="0 0 0 0 0 0 0 0 0 0 0 0 0 0 0 0 0 0 127 0" result="hardAlpha"/>
<feOffset dy="0.5032"/>
<feGaussianBlur stdDeviation="0.3774"/>
<feComposite in2="hardAlpha" operator="out"/>
<feColorMatrix type="matrix" values="0 0 0 0 0.752941 0 0 0 0 0.34902 0 0 0 0 0.0705882 0 0 0 1 0"/>
<feBlend mode="normal" in2="BackgroundImageFix" result="effect1_dropShadow_1196_13164"/>
<feBlend mode="normal" in="SourceGraphic" in2="effect1_dropShadow_1196_13164" result="shape"/>
<feColorMatrix in="SourceAlpha" type="matrix" values="0 0 0 0 0 0 0 0 0 0 0 0 0 0 0 0 0 0 127 0" result="hardAlpha"/>
<feOffset dx="-0.5032" dy="3.774"/>
<feGaussianBlur stdDeviation="1.887"/>
<feComposite in2="hardAlpha" operator="arithmetic" k2="-1" k3="1"/>
<feColorMatrix type="matrix" values="0 0 0 0 1 0 0 0 0 0.73978 0 0 0 0 0.563026 0 0 0 1 0"/>
<feBlend mode="normal" in2="shape" result="effect2_innerShadow_1196_13164"/>
<feColorMatrix in="SourceAlpha" type="matrix" values="0 0 0 0 0 0 0 0 0 0 0 0 0 0 0 0 0 0 127 0" result="hardAlpha"/>
<feOffset dy="-3.774"/>
<feGaussianBlur stdDeviation="1.887"/>
<feComposite in2="hardAlpha" operator="arithmetic" k2="-1" k3="1"/>
<feColorMatrix type="matrix" values="0 0 0 0 0.911283 0 0 0 0 0.494269 0 0 0 0 0.211015 0 0 0 1 0"/>
<feBlend mode="normal" in2="effect2_innerShadow_1196_13164" result="effect3_innerShadow_1196_13164"/>
</filter>
<filter id="filter5_ii_1196_13164" x="21.1379" y="76.3895" width="18.0263" height="18.1029" filterUnits="userSpaceOnUse" color-interpolation-filters="sRGB">
<feFlood flood-opacity="0" result="BackgroundImageFix"/>
<feBlend mode="normal" in="SourceGraphic" in2="BackgroundImageFix" result="shape"/>
<feColorMatrix in="SourceAlpha" type="matrix" values="0 0 0 0 0 0 0 0 0 0 0 0 0 0 0 0 0 0 127 0" result="hardAlpha"/>
<feOffset dx="1.258" dy="1.258"/>
<feGaussianBlur stdDeviation="0.7548"/>
<feComposite in2="hardAlpha" operator="arithmetic" k2="-1" k3="1"/>
<feColorMatrix type="matrix" values="0 0 0 0 1 0 0 0 0 0.960977 0 0 0 0 0.939678 0 0 0 0.9 0"/>
<feBlend mode="normal" in2="shape" result="effect1_innerShadow_1196_13164"/>
<feColorMatrix in="SourceAlpha" type="matrix" values="0 0 0 0 0 0 0 0 0 0 0 0 0 0 0 0 0 0 127 0" result="hardAlpha"/>
<feOffset dx="-2.2644" dy="-1.258"/>
<feGaussianBlur stdDeviation="1.258"/>
<feComposite in2="hardAlpha" operator="arithmetic" k2="-1" k3="1"/>
<feColorMatrix type="matrix" values="0 0 0 0 1 0 0 0 0 0.733333 0 0 0 0 0.619608 0 0 0 1 0"/>
<feBlend mode="normal" in2="effect1_innerShadow_1196_13164" result="effect2_innerShadow_1196_13164"/>
</filter>
<filter id="filter6_ii_1196_13164" x="44.2044" y="76.3895" width="16.7683" height="18.1029" filterUnits="userSpaceOnUse" color-interpolation-filters="sRGB">
<feFlood flood-opacity="0" result="BackgroundImageFix"/>
<feBlend mode="normal" in="SourceGraphic" in2="BackgroundImageFix" result="shape"/>
<feColorMatrix in="SourceAlpha" type="matrix" values="0 0 0 0 0 0 0 0 0 0 0 0 0 0 0 0 0 0 127 0" result="hardAlpha"/>
<feOffset dx="-2.2644" dy="-1.258"/>
<feGaussianBlur stdDeviation="1.258"/>
<feComposite in2="hardAlpha" operator="arithmetic" k2="-1" k3="1"/>
<feColorMatrix type="matrix" values="0 0 0 0 1 0 0 0 0 0.733333 0 0 0 0 0.619608 0 0 0 1 0"/>
<feBlend mode="normal" in2="shape" result="effect1_innerShadow_1196_13164"/>
<feColorMatrix in="SourceAlpha" type="matrix" values="0 0 0 0 0 0 0 0 0 0 0 0 0 0 0 0 0 0 127 0" result="hardAlpha"/>
<feOffset dx="-1.258" dy="1.258"/>
<feGaussianBlur stdDeviation="0.7548"/>
<feComposite in2="hardAlpha" operator="arithmetic" k2="-1" k3="1"/>
<feColorMatrix type="matrix" values="0 0 0 0 1 0 0 0 0 0.960977 0 0 0 0 0.939678 0 0 0 0.9 0"/>
<feBlend mode="normal" in2="effect1_innerShadow_1196_13164" result="effect2_innerShadow_1196_13164"/>
</filter>
<filter id="filter7_f_1196_13164" x="21.8038" y="52.1792" width="40.6269" height="27.5912" filterUnits="userSpaceOnUse" color-interpolation-filters="sRGB">
<feFlood flood-opacity="0" result="BackgroundImageFix"/>
<feBlend mode="normal" in="SourceGraphic" in2="BackgroundImageFix" result="shape"/>
<feGaussianBlur stdDeviation="3.145" result="effect1_foregroundBlur_1196_13164"/>
</filter>
<filter id="filter8_i_1196_13164" x="0" y="32.7905" width="23.6493" height="27.4242" filterUnits="userSpaceOnUse" color-interpolation-filters="sRGB">
<feFlood flood-opacity="0" result="BackgroundImageFix"/>
<feBlend mode="normal" in="SourceGraphic" in2="BackgroundImageFix" result="shape"/>
<feColorMatrix in="SourceAlpha" type="matrix" values="0 0 0 0 0 0 0 0 0 0 0 0 0 0 0 0 0 0 127 0" result="hardAlpha"/>
<feOffset dx="0.7548" dy="1.5096"/>
<feGaussianBlur stdDeviation="1.0064"/>
<feComposite in2="hardAlpha" operator="arithmetic" k2="-1" k3="1"/>
<feColorMatrix type="matrix" values="0 0 0 0 1 0 0 0 0 0.940862 0 0 0 0 0.853441 0 0 0 1 0"/>
<feBlend mode="normal" in2="shape" result="effect1_innerShadow_1196_13164"/>
</filter>
<filter id="filter9_dd_1196_13164" x="2.00975" y="34.7964" width="18.4929" height="21.889" filterUnits="userSpaceOnUse" color-interpolation-filters="sRGB">
<feFlood flood-opacity="0" result="BackgroundImageFix"/>
<feColorMatrix in="SourceAlpha" type="matrix" values="0 0 0 0 0 0 0 0 0 0 0 0 0 0 0 0 0 0 127 0" result="hardAlpha"/>
<feOffset dx="-0.2516" dy="1.0064"/>
<feGaussianBlur stdDeviation="1.258"/>
<feComposite in2="hardAlpha" operator="out"/>
<feColorMatrix type="matrix" values="0 0 0 0 0.913725 0 0 0 0 0.505882 0 0 0 0 0.188235 0 0 0 1 0"/>
<feBlend mode="normal" in2="BackgroundImageFix" result="effect1_dropShadow_1196_13164"/>
<feColorMatrix in="SourceAlpha" type="matrix" values="0 0 0 0 0 0 0 0 0 0 0 0 0 0 0 0 0 0 127 0" result="hardAlpha"/>
<feOffset dx="-0.2516" dy="-1.0064"/>
<feGaussianBlur stdDeviation="1.258"/>
<feComposite in2="hardAlpha" operator="out"/>
<feColorMatrix type="matrix" values="0 0 0 0 0.915621 0 0 0 0 0.504826 0 0 0 0 0.188513 0 0 0 1 0"/>
<feBlend mode="normal" in2="effect1_dropShadow_1196_13164" result="effect2_dropShadow_1196_13164"/>
<feBlend mode="normal" in="SourceGraphic" in2="effect2_dropShadow_1196_13164" result="shape"/>
</filter>
<filter id="filter10_i_1196_13164" x="61.5" y="32.7905" width="23.6493" height="27.4242" filterUnits="userSpaceOnUse" color-interpolation-filters="sRGB">
<feFlood flood-opacity="0" result="BackgroundImageFix"/>
<feBlend mode="normal" in="SourceGraphic" in2="BackgroundImageFix" result="shape"/>
<feColorMatrix in="SourceAlpha" type="matrix" values="0 0 0 0 0 0 0 0 0 0 0 0 0 0 0 0 0 0 127 0" result="hardAlpha"/>
<feOffset dx="0.7548" dy="1.5096"/>
<feGaussianBlur stdDeviation="1.0064"/>
<feComposite in2="hardAlpha" operator="arithmetic" k2="-1" k3="1"/>
<feColorMatrix type="matrix" values="0 0 0 0 1 0 0 0 0 0.940862 0 0 0 0 0.853441 0 0 0 1 0"/>
<feBlend mode="normal" in2="shape" result="effect1_innerShadow_1196_13164"/>
</filter>
<filter id="filter11_dd_1196_13164" x="63.3808" y="34.7964" width="18.4929" height="21.889" filterUnits="userSpaceOnUse" color-interpolation-filters="sRGB">
<feFlood flood-opacity="0" result="BackgroundImageFix"/>
<feColorMatrix in="SourceAlpha" type="matrix" values="0 0 0 0 0 0 0 0 0 0 0 0 0 0 0 0 0 0 127 0" result="hardAlpha"/>
<feOffset dx="-0.2516" dy="1.0064"/>
<feGaussianBlur stdDeviation="1.258"/>
<feComposite in2="hardAlpha" operator="out"/>
<feColorMatrix type="matrix" values="0 0 0 0 0.913725 0 0 0 0 0.505882 0 0 0 0 0.188235 0 0 0 1 0"/>
<feBlend mode="normal" in2="BackgroundImageFix" result="effect1_dropShadow_1196_13164"/>
<feColorMatrix in="SourceAlpha" type="matrix" values="0 0 0 0 0 0 0 0 0 0 0 0 0 0 0 0 0 0 127 0" result="hardAlpha"/>
<feOffset dx="-0.2516" dy="-1.0064"/>
<feGaussianBlur stdDeviation="1.258"/>
<feComposite in2="hardAlpha" operator="out"/>
<feColorMatrix type="matrix" values="0 0 0 0 0.915621 0 0 0 0 0.504826 0 0 0 0 0.188513 0 0 0 1 0"/>
<feBlend mode="normal" in2="effect1_dropShadow_1196_13164" result="effect2_dropShadow_1196_13164"/>
<feBlend mode="normal" in="SourceGraphic" in2="effect2_dropShadow_1196_13164" result="shape"/>
</filter>
<filter id="filter12_f_1196_13164" x="59.3382" y="30.6644" width="18.3197" height="30.7684" filterUnits="userSpaceOnUse" color-interpolation-filters="sRGB">
<feFlood flood-opacity="0" result="BackgroundImageFix"/>
<feBlend mode="normal" in="SourceGraphic" in2="BackgroundImageFix" result="shape"/>
<feGaussianBlur stdDeviation="2.1727" result="effect1_foregroundBlur_1196_13164"/>
</filter>
<filter id="filter13_f_1196_13164" x="6.52569" y="30.6819" width="18.3978" height="30.7357" filterUnits="userSpaceOnUse" color-interpolation-filters="sRGB">
<feFlood flood-opacity="0" result="BackgroundImageFix"/>
<feBlend mode="normal" in="SourceGraphic" in2="BackgroundImageFix" result="shape"/>
<feGaussianBlur stdDeviation="2.1727" result="effect1_foregroundBlur_1196_13164"/>
</filter>
<filter id="filter14_f_1196_13164" x="21.0147" y="12.2837" width="21.9862" height="19.185" filterUnits="userSpaceOnUse" color-interpolation-filters="sRGB">
<feFlood flood-opacity="0" result="BackgroundImageFix"/>
<feBlend mode="normal" in="SourceGraphic" in2="BackgroundImageFix" result="shape"/>
<feGaussianBlur stdDeviation="3.145" result="effect1_foregroundBlur_1196_13164"/>
</filter>
<filter id="filter15_dii_1196_13164" x="13.8362" y="25.794" width="57.0089" height="47.5524" filterUnits="userSpaceOnUse" color-interpolation-filters="sRGB">
<feFlood flood-opacity="0" result="BackgroundImageFix"/>
<feColorMatrix in="SourceAlpha" type="matrix" values="0 0 0 0 0 0 0 0 0 0 0 0 0 0 0 0 0 0 127 0" result="hardAlpha"/>
<feOffset dx="0.1258" dy="0.2516"/>
<feGaussianBlur stdDeviation="1.887"/>
<feComposite in2="hardAlpha" operator="out"/>
<feColorMatrix type="matrix" values="0 0 0 0 0.753512 0 0 0 0 0.34802 0 0 0 0 0.0711936 0 0 0 1 0"/>
<feBlend mode="normal" in2="BackgroundImageFix" result="effect1_dropShadow_1196_13164"/>
<feBlend mode="normal" in="SourceGraphic" in2="effect1_dropShadow_1196_13164" result="shape"/>
<feColorMatrix in="SourceAlpha" type="matrix" values="0 0 0 0 0 0 0 0 0 0 0 0 0 0 0 0 0 0 127 0" result="hardAlpha"/>
<feOffset dx="-2.516" dy="-2.516"/>
<feGaussianBlur stdDeviation="1.887"/>
<feComposite in2="hardAlpha" operator="arithmetic" k2="-1" k3="1"/>
<feColorMatrix type="matrix" values="0 0 0 0 1 0 0 0 0 0.732868 0 0 0 0 0.581881 0 0 0 1 0"/>
<feBlend mode="normal" in2="shape" result="effect2_innerShadow_1196_13164"/>
<feColorMatrix in="SourceAlpha" type="matrix" values="0 0 0 0 0 0 0 0 0 0 0 0 0 0 0 0 0 0 127 0" result="hardAlpha"/>
<feOffset dx="2.516" dy="2.516"/>
<feGaussianBlur stdDeviation="3.145"/>
<feComposite in2="hardAlpha" operator="arithmetic" k2="-1" k3="1"/>
<feColorMatrix type="matrix" values="0 0 0 0 1 0 0 0 0 0.921483 0 0 0 0 0.877103 0 0 0 1 0"/>
<feBlend mode="normal" in2="effect2_innerShadow_1196_13164" result="effect3_innerShadow_1196_13164"/>
</filter>
<filter id="filter16_iii_1196_13164" x="46.4057" y="-3.774" width="35.6577" height="21.08" filterUnits="userSpaceOnUse" color-interpolation-filters="sRGB">
<feFlood flood-opacity="0" result="BackgroundImageFix"/>
<feBlend mode="normal" in="SourceGraphic" in2="BackgroundImageFix" result="shape"/>
<feColorMatrix in="SourceAlpha" type="matrix" values="0 0 0 0 0 0 0 0 0 0 0 0 0 0 0 0 0 0 127 0" result="hardAlpha"/>
<feOffset dx="-3.774" dy="-3.774"/>
<feGaussianBlur stdDeviation="3.145"/>
<feComposite in2="hardAlpha" operator="arithmetic" k2="-1" k3="1"/>
<feColorMatrix type="matrix" values="0 0 0 0 0.353275 0 0 0 0 0.662391 0 0 0 0 0 0 0 0 1 0"/>
<feBlend mode="normal" in2="shape" result="effect1_innerShadow_1196_13164"/>
<feColorMatrix in="SourceAlpha" type="matrix" values="0 0 0 0 0 0 0 0 0 0 0 0 0 0 0 0 0 0 127 0" result="hardAlpha"/>
<feOffset dx="-2.0128" dy="-1.258"/>
<feGaussianBlur stdDeviation="1.5096"/>
<feComposite in2="hardAlpha" operator="arithmetic" k2="-1" k3="1"/>
<feColorMatrix type="matrix" values="0 0 0 0 0.308757 0 0 0 0 0.554143 0 0 0 0 0.028317 0 0 0 1 0"/>
<feBlend mode="normal" in2="effect1_innerShadow_1196_13164" result="effect2_innerShadow_1196_13164"/>
<feColorMatrix in="SourceAlpha" type="matrix" values="0 0 0 0 0 0 0 0 0 0 0 0 0 0 0 0 0 0 127 0" result="hardAlpha"/>
<feOffset dx="0.7548" dy="1.5096"/>
<feGaussianBlur stdDeviation="1.5096"/>
<feComposite in2="hardAlpha" operator="arithmetic" k2="-1" k3="1"/>
<feColorMatrix type="matrix" values="0 0 0 0 1 0 0 0 0 0.989432 0 0 0 0 0.700571 0 0 0 0.8 0"/>
<feBlend mode="normal" in2="effect2_innerShadow_1196_13164" result="effect3_innerShadow_1196_13164"/>
</filter>
<filter id="filter17_d_1196_13164" x="47.8959" y="3.59055" width="34.837" height="9.50596" filterUnits="userSpaceOnUse" color-interpolation-filters="sRGB">
<feFlood flood-opacity="0" result="BackgroundImageFix"/>
<feColorMatrix in="SourceAlpha" type="matrix" values="0 0 0 0 0 0 0 0 0 0 0 0 0 0 0 0 0 0 127 0" result="hardAlpha"/>
<feOffset dy="0.5032"/>
<feGaussianBlur stdDeviation="0.5032"/>
<feComposite in2="hardAlpha" operator="out"/>
<feColorMatrix type="matrix" values="0 0 0 0 0.390191 0 0 0 0 0.632193 0 0 0 0 0.0364964 0 0 0 0.8 0"/>
<feBlend mode="normal" in2="BackgroundImageFix" result="effect1_dropShadow_1196_13164"/>
<feBlend mode="normal" in="SourceGraphic" in2="effect1_dropShadow_1196_13164" result="shape"/>
</filter>
<filter id="filter18_ii_1196_13164" x="37.5202" y="9.20703" width="9.61436" height="10.017" filterUnits="userSpaceOnUse" color-interpolation-filters="sRGB">
<feFlood flood-opacity="0" result="BackgroundImageFix"/>
<feBlend mode="normal" in="SourceGraphic" in2="BackgroundImageFix" result="shape"/>
<feColorMatrix in="SourceAlpha" type="matrix" values="0 0 0 0 0 0 0 0 0 0 0 0 0 0 0 0 0 0 127 0" result="hardAlpha"/>
<feOffset dx="1.5096"/>
<feGaussianBlur stdDeviation="0.7548"/>
<feComposite in2="hardAlpha" operator="arithmetic" k2="-1" k3="1"/>
<feColorMatrix type="matrix" values="0 0 0 0 0.92549 0 0 0 0 0.537255 0 0 0 0 0.235294 0 0 0 1 0"/>
<feBlend mode="normal" in2="shape" result="effect1_innerShadow_1196_13164"/>
<feColorMatrix in="SourceAlpha" type="matrix" values="0 0 0 0 0 0 0 0 0 0 0 0 0 0 0 0 0 0 127 0" result="hardAlpha"/>
<feOffset dx="-0.5032" dy="0.7548"/>
<feGaussianBlur stdDeviation="1.258"/>
<feComposite in2="hardAlpha" operator="arithmetic" k2="-1" k3="1"/>
<feColorMatrix type="matrix" values="0 0 0 0 1 0 0 0 0 0.933333 0 0 0 0 0.831373 0 0 0 1 0"/>
<feBlend mode="normal" in2="effect1_innerShadow_1196_13164" result="effect2_innerShadow_1196_13164"/>
</filter>
<filter id="filter19_ii_1196_13164" x="45.1304" y="12.2739" width="6.58231" height="7.48922" filterUnits="userSpaceOnUse" color-interpolation-filters="sRGB">
<feFlood flood-opacity="0" result="BackgroundImageFix"/>
<feBlend mode="normal" in="SourceGraphic" in2="BackgroundImageFix" result="shape"/>
<feColorMatrix in="SourceAlpha" type="matrix" values="0 0 0 0 0 0 0 0 0 0 0 0 0 0 0 0 0 0 127 0" result="hardAlpha"/>
<feOffset dx="1.5096"/>
<feGaussianBlur stdDeviation="0.7548"/>
<feComposite in2="hardAlpha" operator="arithmetic" k2="-1" k3="1"/>
<feColorMatrix type="matrix" values="0 0 0 0 0.92549 0 0 0 0 0.537255 0 0 0 0 0.235294 0 0 0 1 0"/>
<feBlend mode="normal" in2="shape" result="effect1_innerShadow_1196_13164"/>
<feColorMatrix in="SourceAlpha" type="matrix" values="0 0 0 0 0 0 0 0 0 0 0 0 0 0 0 0 0 0 127 0" result="hardAlpha"/>
<feOffset dx="-0.3774" dy="0.3774"/>
<feGaussianBlur stdDeviation="1.258"/>
<feComposite in2="hardAlpha" operator="arithmetic" k2="-1" k3="1"/>
<feColorMatrix type="matrix" values="0 0 0 0 1 0 0 0 0 0.933333 0 0 0 0 0.831373 0 0 0 0.65 0"/>
<feBlend mode="normal" in2="effect1_innerShadow_1196_13164" result="effect2_innerShadow_1196_13164"/>
</filter>
<filter id="filter20_f_1196_13164" x="36.2459" y="54.1751" width="12.3558" height="5.32703" filterUnits="userSpaceOnUse" color-interpolation-filters="sRGB">
<feFlood flood-opacity="0" result="BackgroundImageFix"/>
<feBlend mode="normal" in="SourceGraphic" in2="BackgroundImageFix" result="shape"/>
<feGaussianBlur stdDeviation="0.629" result="effect1_foregroundBlur_1196_13164"/>
</filter>
<filter id="filter21_ii_1196_13164" x="37.2773" y="55.0538" width="9.83594" height="3.56925" filterUnits="userSpaceOnUse" color-interpolation-filters="sRGB">
<feFlood flood-opacity="0" result="BackgroundImageFix"/>
<feBlend mode="normal" in="SourceGraphic" in2="BackgroundImageFix" result="shape"/>
<feColorMatrix in="SourceAlpha" type="matrix" values="0 0 0 0 0 0 0 0 0 0 0 0 0 0 0 0 0 0 127 0" result="hardAlpha"/>
<feOffset dy="-0.5032"/>
<feGaussianBlur stdDeviation="0.1887"/>
<feComposite in2="hardAlpha" operator="arithmetic" k2="-1" k3="1"/>
<feColorMatrix type="matrix" values="0 0 0 0 0 0 0 0 0 0 0 0 0 0 0 0 0 0 1 0"/>
<feBlend mode="normal" in2="shape" result="effect1_innerShadow_1196_13164"/>
<feColorMatrix in="SourceAlpha" type="matrix" values="0 0 0 0 0 0 0 0 0 0 0 0 0 0 0 0 0 0 127 0" result="hardAlpha"/>
<feOffset dy="0.5032"/>
<feGaussianBlur stdDeviation="0.1887"/>
<feComposite in2="hardAlpha" operator="arithmetic" k2="-1" k3="1"/>
<feColorMatrix type="matrix" values="0 0 0 0 0 0 0 0 0 0 0 0 0 0 0 0 0 0 1 0"/>
<feBlend mode="normal" in2="effect1_innerShadow_1196_13164" result="effect2_innerShadow_1196_13164"/>
</filter>
<filter id="filter22_f_1196_13164" x="44.089" y="46.9889" width="21.5915" height="18.4333" filterUnits="userSpaceOnUse" color-interpolation-filters="sRGB">
<feFlood flood-opacity="0" result="BackgroundImageFix"/>
<feBlend mode="normal" in="SourceGraphic" in2="BackgroundImageFix" result="shape"/>
<feGaussianBlur stdDeviation="2.8305" result="effect1_foregroundBlur_1196_13164"/>
</filter>
<filter id="filter23_f_1196_13164" x="18.8156" y="46.6671" width="21.5915" height="18.4333" filterUnits="userSpaceOnUse" color-interpolation-filters="sRGB">
<feFlood flood-opacity="0" result="BackgroundImageFix"/>
<feBlend mode="normal" in="SourceGraphic" in2="BackgroundImageFix" result="shape"/>
<feGaussianBlur stdDeviation="2.8305" result="effect1_foregroundBlur_1196_13164"/>
</filter>
<filter id="filter24_f_1196_13164" x="46.0897" y="45.8792" width="9.62537" height="9.62684" filterUnits="userSpaceOnUse" color-interpolation-filters="sRGB">
<feFlood flood-opacity="0" result="BackgroundImageFix"/>
<feBlend mode="normal" in="SourceGraphic" in2="BackgroundImageFix" result="shape"/>
<feGaussianBlur stdDeviation="0.629" result="effect1_foregroundBlur_1196_13164"/>
</filter>
<filter id="filter25_f_1196_13164" x="27.9178" y="45.8792" width="9.62537" height="9.62684" filterUnits="userSpaceOnUse" color-interpolation-filters="sRGB">
<feFlood flood-opacity="0" result="BackgroundImageFix"/>
<feBlend mode="normal" in="SourceGraphic" in2="BackgroundImageFix" result="shape"/>
<feGaussianBlur stdDeviation="0.629" result="effect1_foregroundBlur_1196_13164"/>
</filter>
<filter id="filter26_ii_1196_13164" x="29.9688" y="47.1554" width="6.32031" height="7.07927" filterUnits="userSpaceOnUse" color-interpolation-filters="sRGB">
<feFlood flood-opacity="0" result="BackgroundImageFix"/>
<feBlend mode="normal" in="SourceGraphic" in2="BackgroundImageFix" result="shape"/>
<feColorMatrix in="SourceAlpha" type="matrix" values="0 0 0 0 0 0 0 0 0 0 0 0 0 0 0 0 0 0 127 0" result="hardAlpha"/>
<feOffset dy="0.379236"/>
<feGaussianBlur stdDeviation="0.252824"/>
<feComposite in2="hardAlpha" operator="arithmetic" k2="-1" k3="1"/>
<feColorMatrix type="matrix" values="0 0 0 0 0 0 0 0 0 0 0 0 0 0 0 0 0 0 1 0"/>
<feBlend mode="normal" in2="shape" result="effect1_innerShadow_1196_13164"/>
<feColorMatrix in="SourceAlpha" type="matrix" values="0 0 0 0 0 0 0 0 0 0 0 0 0 0 0 0 0 0 127 0" result="hardAlpha"/>
<feOffset dy="-0.379236"/>
<feGaussianBlur stdDeviation="0.252824"/>
<feComposite in2="hardAlpha" operator="arithmetic" k2="-1" k3="1"/>
<feColorMatrix type="matrix" values="0 0 0 0 0 0 0 0 0 0 0 0 0 0 0 0 0 0 1 0"/>
<feBlend mode="normal" in2="effect1_innerShadow_1196_13164" result="effect2_innerShadow_1196_13164"/>
</filter>
<filter id="filter27_ii_1196_13164" x="30.9805" y="48.1832" width="1.58594" height="2.13992" filterUnits="userSpaceOnUse" color-interpolation-filters="sRGB">
<feFlood flood-opacity="0" result="BackgroundImageFix"/>
<feBlend mode="normal" in="SourceGraphic" in2="BackgroundImageFix" result="shape"/>
<feColorMatrix in="SourceAlpha" type="matrix" values="0 0 0 0 0 0 0 0 0 0 0 0 0 0 0 0 0 0 127 0" result="hardAlpha"/>
<feOffset dy="0.379236"/>
<feGaussianBlur stdDeviation="0.126412"/>
<feComposite in2="hardAlpha" operator="arithmetic" k2="-1" k3="1"/>
<feColorMatrix type="matrix" values="0 0 0 0 1 0 0 0 0 1 0 0 0 0 1 0 0 0 1 0"/>
<feBlend mode="normal" in2="shape" result="effect1_innerShadow_1196_13164"/>
<feColorMatrix in="SourceAlpha" type="matrix" values="0 0 0 0 0 0 0 0 0 0 0 0 0 0 0 0 0 0 127 0" result="hardAlpha"/>
<feOffset dy="-0.252824"/>
<feGaussianBlur stdDeviation="0.126412"/>
<feComposite in2="hardAlpha" operator="arithmetic" k2="-1" k3="1"/>
<feColorMatrix type="matrix" values="0 0 0 0 1 0 0 0 0 1 0 0 0 0 1 0 0 0 1 0"/>
<feBlend mode="normal" in2="effect1_innerShadow_1196_13164" result="effect2_innerShadow_1196_13164"/>
</filter>
<filter id="filter28_ii_1196_13164" x="48.1328" y="47.1554" width="6.32031" height="7.07927" filterUnits="userSpaceOnUse" color-interpolation-filters="sRGB">
<feFlood flood-opacity="0" result="BackgroundImageFix"/>
<feBlend mode="normal" in="SourceGraphic" in2="BackgroundImageFix" result="shape"/>
<feColorMatrix in="SourceAlpha" type="matrix" values="0 0 0 0 0 0 0 0 0 0 0 0 0 0 0 0 0 0 127 0" result="hardAlpha"/>
<feOffset dy="0.379236"/>
<feGaussianBlur stdDeviation="0.252824"/>
<feComposite in2="hardAlpha" operator="arithmetic" k2="-1" k3="1"/>
<feColorMatrix type="matrix" values="0 0 0 0 0 0 0 0 0 0 0 0 0 0 0 0 0 0 1 0"/>
<feBlend mode="normal" in2="shape" result="effect1_innerShadow_1196_13164"/>
<feColorMatrix in="SourceAlpha" type="matrix" values="0 0 0 0 0 0 0 0 0 0 0 0 0 0 0 0 0 0 127 0" result="hardAlpha"/>
<feOffset dy="-0.379236"/>
<feGaussianBlur stdDeviation="0.252824"/>
<feComposite in2="hardAlpha" operator="arithmetic" k2="-1" k3="1"/>
<feColorMatrix type="matrix" values="0 0 0 0 0 0 0 0 0 0 0 0 0 0 0 0 0 0 1 0"/>
<feBlend mode="normal" in2="effect1_innerShadow_1196_13164" result="effect2_innerShadow_1196_13164"/>
</filter>
<filter id="filter29_ii_1196_13164" x="49.1484" y="48.1832" width="1.58594" height="2.13992" filterUnits="userSpaceOnUse" color-interpolation-filters="sRGB">
<feFlood flood-opacity="0" result="BackgroundImageFix"/>
<feBlend mode="normal" in="SourceGraphic" in2="BackgroundImageFix" result="shape"/>
<feColorMatrix in="SourceAlpha" type="matrix" values="0 0 0 0 0 0 0 0 0 0 0 0 0 0 0 0 0 0 127 0" result="hardAlpha"/>
<feOffset dy="0.379236"/>
<feGaussianBlur stdDeviation="0.126412"/>
<feComposite in2="hardAlpha" operator="arithmetic" k2="-1" k3="1"/>
<feColorMatrix type="matrix" values="0 0 0 0 1 0 0 0 0 1 0 0 0 0 1 0 0 0 1 0"/>
<feBlend mode="normal" in2="shape" result="effect1_innerShadow_1196_13164"/>
<feColorMatrix in="SourceAlpha" type="matrix" values="0 0 0 0 0 0 0 0 0 0 0 0 0 0 0 0 0 0 127 0" result="hardAlpha"/>
<feOffset dy="-0.252824"/>
<feGaussianBlur stdDeviation="0.126412"/>
<feComposite in2="hardAlpha" operator="arithmetic" k2="-1" k3="1"/>
<feColorMatrix type="matrix" values="0 0 0 0 1 0 0 0 0 1 0 0 0 0 1 0 0 0 1 0"/>
<feBlend mode="normal" in2="effect1_innerShadow_1196_13164" result="effect2_innerShadow_1196_13164"/>
</filter>
<radialGradient id="paint0_radial_1196_13164" cx="0" cy="0" r="1" gradientTransform="matrix(10.0038 19.6893 -23.1022 11.7311 35.5783 70.5073)" gradientUnits="userSpaceOnUse">
<stop stop-color="#F7AD68"/>
<stop offset="1" stop-color="#F99547"/>
</radialGradient>
<radialGradient id="paint1_radial_1196_13164" cx="0" cy="0" r="1" gradientTransform="matrix(4.38037 14.2122 -10.1157 8.46774 39.5487 72.2172)" gradientUnits="userSpaceOnUse">
<stop stop-color="#F7AD68"/>
<stop offset="1" stop-color="#F99547"/>
</radialGradient>
<radialGradient id="paint2_radial_1196_13164" cx="0" cy="0" r="1" gradientUnits="userSpaceOnUse" gradientTransform="translate(42.5097 76.9316) rotate(90) scale(10.2527 7.29751)">
<stop stop-color="#FFE3D1"/>
<stop offset="1" stop-color="#FFCBAC"/>
</radialGradient>
<linearGradient id="paint3_linear_1196_13164" x1="32.4833" y1="81.2366" x2="19.3614" y2="89.7383" gradientUnits="userSpaceOnUse">
<stop stop-color="#FFE0D2"/>
<stop offset="1" stop-color="#FFC3A8"/>
</linearGradient>
<linearGradient id="paint4_linear_1196_13164" x1="11.2958" y1="0.127742" x2="-1.8261" y2="8.62946" gradientUnits="userSpaceOnUse">
<stop stop-color="#FFE0D2"/>
<stop offset="1" stop-color="#FFC3A8"/>
</linearGradient>
<linearGradient id="paint5_linear_1196_13164" x1="8.5544" y1="37.8854" x2="21.6376" y2="41.282" gradientUnits="userSpaceOnUse">
<stop stop-color="#F7AD68"/>
<stop offset="1" stop-color="#FB9549"/>
</linearGradient>
<radialGradient id="paint6_radial_1196_13164" cx="0" cy="0" r="1" gradientUnits="userSpaceOnUse" gradientTransform="translate(14.2123 45.741) rotate(-174.289) scale(9.48205 8.59813)">
<stop stop-color="#FAE3D6"/>
<stop offset="1" stop-color="#FF9B73"/>
</radialGradient>
<linearGradient id="paint7_linear_1196_13164" x1="75.8408" y1="37.8854" x2="62.7576" y2="41.282" gradientUnits="userSpaceOnUse">
<stop stop-color="#F7AD68"/>
<stop offset="1" stop-color="#FB9549"/>
</linearGradient>
<radialGradient id="paint8_radial_1196_13164" cx="0" cy="0" r="1" gradientUnits="userSpaceOnUse" gradientTransform="translate(70.174 45.741) rotate(-5.71059) scale(9.48205 8.59813)">
<stop stop-color="#FAE3D6"/>
<stop offset="1" stop-color="#FF9B73"/>
</radialGradient>
<radialGradient id="paint9_radial_1196_13164" cx="0" cy="0" r="1" gradientTransform="matrix(30.4543 51.3088 -53.8204 31.5537 32.2318 26.0365)" gradientUnits="userSpaceOnUse">
<stop stop-color="#FFE7BD"/>
<stop offset="0.418076" stop-color="#F7AB44"/>
<stop offset="0.66676" stop-color="#FF914C"/>
<stop offset="0.857615" stop-color="#FFC067"/>
</radialGradient>
<radialGradient id="paint10_radial_1196_13164" cx="0" cy="0" r="1" gradientTransform="matrix(25.8554 34.0918 -42.1521 32.4279 32.3481 33.2791)" gradientUnits="userSpaceOnUse">
<stop offset="0.0294468" stop-color="#FFF4EE"/>
<stop offset="0.305354" stop-color="#FFDEC9"/>
<stop offset="0.665153" stop-color="#FFD2B6"/>
</radialGradient>
<linearGradient id="paint11_linear_1196_13164" x1="50.1937" y1="3.90424" x2="52.7097" y2="4.97353" gradientUnits="userSpaceOnUse">
<stop stop-color="#DDE744"/>
<stop offset="1" stop-color="#005C11"/>
</linearGradient>
<linearGradient id="paint12_linear_1196_13164" x1="66.0422" y1="2.83446" x2="71.5197" y2="23.277" gradientUnits="userSpaceOnUse">
<stop stop-color="#FEF954"/>
<stop offset="1" stop-color="#519400"/>
</linearGradient>
<linearGradient id="paint13_linear_1196_13164" x1="66.0266" y1="2.83495" x2="71.5041" y2="23.2774" gradientUnits="userSpaceOnUse">
<stop stop-color="#FEF954"/>
<stop offset="1" stop-color="#519400"/>
</linearGradient>
<linearGradient id="paint14_linear_1196_13164" x1="44.3892" y1="-0.637589" x2="91.5641" y2="9.42641" gradientUnits="userSpaceOnUse">
<stop offset="0.128264" stop-color="#63AB05"/>
<stop offset="0.958511" stop-color="#76B12C"/>
</linearGradient>
<linearGradient id="paint15_linear_1196_13164" x1="42.2604" y1="10.5722" x2="37.1026" y2="16.6735" gradientUnits="userSpaceOnUse">
<stop stop-color="#FAC375"/>
<stop offset="1" stop-color="#EC8515"/>
</linearGradient>
<linearGradient id="paint16_linear_1196_13164" x1="48.5615" y1="13.4465" x2="44.2428" y2="16.847" gradientUnits="userSpaceOnUse">
<stop stop-color="#FAC375"/>
<stop offset="1" stop-color="#EC8515"/>
</linearGradient>
<radialGradient id="paint17_radial_1196_13164" cx="0" cy="0" r="1" gradientUnits="userSpaceOnUse" gradientTransform="translate(41.9491 53.0606) rotate(80.5377) scale(1.20146 1.80219)">
<stop stop-color="#FFE6DB"/>
<stop offset="1" stop-color="#FA976A"/>
</radialGradient>
<linearGradient id="paint18_linear_1196_13164" x1="42.2112" y1="57.013" x2="42.7633" y2="60.1316" gradientUnits="userSpaceOnUse">
<stop stop-color="#340808"/>
<stop offset="1" stop-color="#ED8476"/>
</linearGradient>
<radialGradient id="paint19_radial_1196_13164" cx="0" cy="0" r="1" gradientTransform="matrix(-0.291719 3.4476 -3.4476 -0.282946 33.4694 50.4077)" gradientUnits="userSpaceOnUse">
<stop stop-color="#292929"/>
<stop offset="1"/>
</radialGradient>
<linearGradient id="paint20_linear_1196_13164" x1="31.2594" y1="48.5794" x2="32.9882" y2="48.9583" gradientUnits="userSpaceOnUse">
<stop stop-color="white"/>
<stop offset="1" stop-color="white" stop-opacity="0.8"/>
</linearGradient>
<radialGradient id="paint21_radial_1196_13164" cx="0" cy="0" r="1" gradientTransform="matrix(-0.291719 3.4476 -3.4476 -0.282946 51.6334 50.4077)" gradientUnits="userSpaceOnUse">
<stop stop-color="#292929"/>
<stop offset="1"/>
</radialGradient>
<linearGradient id="paint22_linear_1196_13164" x1="49.4274" y1="48.5794" x2="51.1562" y2="48.9583" gradientUnits="userSpaceOnUse">
<stop stop-color="white"/>
<stop offset="1" stop-color="white" stop-opacity="0.8"/>
</linearGradient>
</defs>
</svg>
