<svg width="42" height="42" viewBox="0 0 42 42" fill="none" xmlns="http://www.w3.org/2000/svg">
<ellipse cx="21.0019" cy="20.8593" rx="17.6777" ry="17.3241" fill="url(#paint0_linear_899_10019)"/>
<ellipse cx="21.0016" cy="20.859" rx="14.8492" ry="14.4957" fill="url(#paint1_linear_899_10019)"/>
<g filter="url(#filter0_ii_899_10019)">
<circle cx="21" cy="21" r="14.8492" transform="rotate(45 21 21)" fill="url(#paint2_linear_899_10019)"/>
</g>
<circle cx="20.9526" cy="20.9995" r="13.435" fill="url(#paint3_linear_899_10019)"/>
<g filter="url(#filter1_ii_899_10019)">
<path d="M13.4094 24.7673L15.8174 21.2533L13.6194 17.9633C13.4607 17.7206 13.3814 17.4873 13.3814 17.2633C13.3814 16.9646 13.4887 16.7126 13.7034 16.5073C13.9274 16.2926 14.2027 16.1853 14.5294 16.1853C14.772 16.1853 14.968 16.2413 15.1174 16.3533C15.2667 16.4559 15.388 16.5866 15.4814 16.7453L17.1474 19.6153L18.9254 16.7453C19.056 16.5399 19.1867 16.3953 19.3174 16.3113C19.448 16.2273 19.63 16.1853 19.8634 16.1853C20.1714 16.1853 20.4327 16.2739 20.6474 16.4513C20.862 16.6193 20.9694 16.8759 20.9694 17.2213C20.9694 17.3146 20.946 17.4219 20.8994 17.5433C20.862 17.6553 20.8154 17.7533 20.7594 17.8373L18.4214 21.2533L20.7034 24.6833C20.7034 24.6833 20.7267 24.7159 20.7734 24.7813C20.8854 24.9586 20.9647 25.0939 21.0114 25.1873C21.0581 25.2806 21.0814 25.3833 21.0814 25.4953C21.0814 25.8499 20.9694 26.1299 20.7454 26.3353C20.5214 26.5313 20.2414 26.6293 19.9054 26.6293C19.6907 26.6293 19.5041 26.5919 19.3454 26.5173C19.196 26.4426 19.0607 26.3026 18.9394 26.0973L17.0914 23.0033L15.1034 26.1813C15.01 26.3306 14.884 26.4426 14.7254 26.5173C14.5667 26.5919 14.394 26.6293 14.2074 26.6293C13.8714 26.6293 13.6007 26.5359 13.3954 26.3493C13.1994 26.1626 13.1014 25.9293 13.1014 25.6493C13.1014 25.5093 13.12 25.3739 13.1574 25.2433C13.204 25.1033 13.288 24.9446 13.4094 24.7673ZM22.2965 25.4813V17.7113C22.2965 17.2259 22.4085 16.8806 22.6325 16.6753C22.8659 16.4699 23.2019 16.3673 23.6405 16.3673H27.1545C27.6492 16.3673 28.1065 16.4326 28.5265 16.5633C28.9465 16.6846 29.3152 16.8759 29.6325 17.1373C29.9499 17.3986 30.1972 17.7346 30.3745 18.1453C30.5519 18.5466 30.6405 19.0179 30.6405 19.5593C30.6405 20.5019 30.3279 21.2719 29.7025 21.8693C29.0865 22.4573 28.2325 22.7513 27.1405 22.7513H24.5925V25.4813C24.5925 25.8266 24.4899 26.1066 24.2845 26.3213C24.0792 26.5266 23.7992 26.6293 23.4445 26.6293C23.0992 26.6293 22.8192 26.5266 22.6045 26.3213C22.3992 26.1066 22.2965 25.8266 22.2965 25.4813ZM24.5925 18.1313V20.9873H26.7345C27.2012 20.9873 27.5839 20.8566 27.8825 20.5953C28.1905 20.3339 28.3445 19.9886 28.3445 19.5593C28.3445 19.0739 28.1812 18.7146 27.8545 18.4813C27.5372 18.2479 27.0845 18.1313 26.4965 18.1313H24.5925Z" fill="url(#paint4_linear_899_10019)"/>
</g>
<defs>
<filter id="filter0_ii_899_10019" x="5.15039" y="6.15039" width="30.6992" height="31.6992" filterUnits="userSpaceOnUse" color-interpolation-filters="sRGB">
<feFlood flood-opacity="0" result="BackgroundImageFix"/>
<feBlend mode="normal" in="SourceGraphic" in2="BackgroundImageFix" result="shape"/>
<feColorMatrix in="SourceAlpha" type="matrix" values="0 0 0 0 0 0 0 0 0 0 0 0 0 0 0 0 0 0 127 0" result="hardAlpha"/>
<feOffset dy="1"/>
<feGaussianBlur stdDeviation="0.5"/>
<feComposite in2="hardAlpha" operator="arithmetic" k2="-1" k3="1"/>
<feColorMatrix type="matrix" values="0 0 0 0 0 0 0 0 0 0.353216 0 0 0 0 0.502885 0 0 0 0.3 0"/>
<feBlend mode="normal" in2="shape" result="effect1_innerShadow_899_10019"/>
<feColorMatrix in="SourceAlpha" type="matrix" values="0 0 0 0 0 0 0 0 0 0 0 0 0 0 0 0 0 0 127 0" result="hardAlpha"/>
<feMorphology radius="1" operator="dilate" in="SourceAlpha" result="effect2_innerShadow_899_10019"/>
<feOffset dx="-1" dy="2"/>
<feGaussianBlur stdDeviation="3.6"/>
<feComposite in2="hardAlpha" operator="arithmetic" k2="-1" k3="1"/>
<feColorMatrix type="matrix" values="0 0 0 0 0 0 0 0 0 0.369425 0 0 0 0 0.525961 0 0 0 0.5 0"/>
<feBlend mode="normal" in2="effect1_innerShadow_899_10019" result="effect2_innerShadow_899_10019"/>
</filter>
<filter id="filter1_ii_899_10019" x="13.1016" y="16.1855" width="17.5391" height="14.4434" filterUnits="userSpaceOnUse" color-interpolation-filters="sRGB">
<feFlood flood-opacity="0" result="BackgroundImageFix"/>
<feBlend mode="normal" in="SourceGraphic" in2="BackgroundImageFix" result="shape"/>
<feColorMatrix in="SourceAlpha" type="matrix" values="0 0 0 0 0 0 0 0 0 0 0 0 0 0 0 0 0 0 127 0" result="hardAlpha"/>
<feOffset dy="4"/>
<feGaussianBlur stdDeviation="2"/>
<feComposite in2="hardAlpha" operator="arithmetic" k2="-1" k3="1"/>
<feColorMatrix type="matrix" values="0 0 0 0 0.122366 0 0 0 0 0.369022 0 0 0 0 0.452885 0 0 0 0.2 0"/>
<feBlend mode="normal" in2="shape" result="effect1_innerShadow_899_10019"/>
<feColorMatrix in="SourceAlpha" type="matrix" values="0 0 0 0 0 0 0 0 0 0 0 0 0 0 0 0 0 0 127 0" result="hardAlpha"/>
<feOffset dy="1"/>
<feGaussianBlur stdDeviation="0.5"/>
<feComposite in2="hardAlpha" operator="arithmetic" k2="-1" k3="1"/>
<feColorMatrix type="matrix" values="0 0 0 0 0.0781999 0 0 0 0 0.236617 0 0 0 0 0.289423 0 0 0 0.5 0"/>
<feBlend mode="normal" in2="effect1_innerShadow_899_10019" result="effect2_innerShadow_899_10019"/>
</filter>
<linearGradient id="paint0_linear_899_10019" x1="16.0914" y1="16.047" x2="25.5832" y2="38.3236" gradientUnits="userSpaceOnUse">
<stop stop-color="#9EE1FE"/>
<stop offset="0.230769" stop-color="#AEE6FE"/>
<stop offset="0.759615" stop-color="#4CC8FD"/>
<stop offset="1" stop-color="#00B1FC"/>
</linearGradient>
<linearGradient id="paint1_linear_899_10019" x1="16.8768" y1="16.8324" x2="24.7975" y2="35.4943" gradientUnits="userSpaceOnUse">
<stop stop-color="#9EE1FE"/>
<stop offset="0.230769" stop-color="#AEE6FE"/>
<stop offset="0.759615" stop-color="#4CC8FD"/>
<stop offset="1" stop-color="#00B1FC"/>
</linearGradient>
<linearGradient id="paint2_linear_899_10019" x1="16.8752" y1="16.8752" x2="25.1248" y2="35.8492" gradientUnits="userSpaceOnUse">
<stop stop-color="#A6D7EC"/>
<stop offset="0.230769" stop-color="#BED9E4"/>
<stop offset="0.408654" stop-color="#6BC2E6"/>
<stop offset="1" stop-color="#44AFDD"/>
</linearGradient>
<linearGradient id="paint3_linear_899_10019" x1="17.2207" y1="17.2675" x2="24.6846" y2="34.4345" gradientUnits="userSpaceOnUse">
<stop stop-color="#9EE1FE"/>
<stop offset="0.230769" stop-color="#AEE6FE"/>
<stop offset="0.759615" stop-color="#4CC8FD"/>
<stop offset="1" stop-color="#00B1FC"/>
</linearGradient>
<linearGradient id="paint4_linear_899_10019" x1="8.99766" y1="14.6152" x2="20.129" y2="28.6098" gradientUnits="userSpaceOnUse">
<stop stop-color="#9EE1FE"/>
<stop offset="0.230769" stop-color="#AEE6FE"/>
<stop offset="0.759615" stop-color="#4CC8FD"/>
<stop offset="1" stop-color="#00B1FC"/>
</linearGradient>
</defs>
</svg>
