<svg width="55" height="44" viewBox="0 0 55 44" fill="none" xmlns="http://www.w3.org/2000/svg">
<path d="M27.4053 42.07C27.0455 42.8371 25.9545 42.8371 25.5947 42.07L21.5392 33.4247C21.2281 32.7615 21.712 32 22.4445 32L30.5555 32C31.288 32 31.7719 32.7615 31.4608 33.4247L27.4053 42.07Z" fill="#6F44F5"/>
<rect width="55" height="36" rx="8" fill="#6F44F5"/>
<path d="M15.2969 12.6875V24H13.5625V14.4062H13.5L10.7969 16.1719V14.5312L13.6094 12.6875H15.2969ZM24.8281 12.2969C24.8359 14.0469 27.0781 15.7422 29.7344 16.125L29.1562 17.2969C26.9297 16.9297 24.9766 15.7812 24.0781 14.2109C23.1875 15.8047 21.2188 16.9609 18.9844 17.3281L18.4219 16.1562C21.0781 15.75 23.3047 14.1016 23.3125 12.2969V11.6875H24.8281V12.2969ZM17.6719 19.5781V18.375H30.4844V19.5781H24.9219V22.2812H23.4531V19.5781H17.6719ZM19.2656 25.0312V20.9688H20.75V23.8281H29.0625V25.0312H19.2656ZM36.1094 11.9688C38.2188 11.9609 39.7422 13.1406 39.75 14.875C39.7422 16.5938 38.2188 17.7812 36.1094 17.7656C34.0078 17.7812 32.4922 16.5938 32.5 14.875C32.4922 13.1406 34.0078 11.9609 36.1094 11.9688ZM31.5 18.8594C34.0859 18.8594 37.6562 18.8047 40.7188 18.3438L40.8281 19.4531C39.5469 19.6953 38.2266 19.8438 36.9375 19.9297V24.8906H35.4531V20.0156C34.0938 20.0781 32.8125 20.0859 31.7031 20.0938L31.5 18.8594ZM33.9375 14.875C33.9219 15.8906 34.8359 16.5625 36.1094 16.5469C37.4141 16.5625 38.3281 15.8906 38.3281 14.875C38.3281 13.8516 37.4141 13.1641 36.1094 13.1719C34.8359 13.1641 33.9219 13.8516 33.9375 14.875ZM41.6875 25.3281V11.3438H43.1562V25.3281H41.6875Z" fill="white"/>
</svg>
