<svg width="58" height="44" viewBox="0 0 58 44" fill="none" xmlns="http://www.w3.org/2000/svg">
<path d="M27.4053 42.07C27.0455 42.8371 25.9545 42.8371 25.5947 42.07L21.5392 33.4247C21.2281 32.7615 21.712 32 22.4445 32L30.5555 32C31.288 32 31.7719 32.7615 31.4608 33.4247L27.4053 42.07Z" fill="#6F44F5"/>
<rect width="58" height="36" rx="8" fill="#6F44F5"/>
<path d="M11 22.75L14.9219 18.7969C15.3958 18.2969 15.7578 17.8958 16.0078 17.5938C16.2578 17.2917 16.4479 16.9974 16.5781 16.7109C16.7135 16.4193 16.7812 16.1146 16.7812 15.7969C16.7812 15.4323 16.6901 15.112 16.5078 14.8359C16.3255 14.5599 16.0755 14.3464 15.7578 14.1953C15.4401 14.0443 15.0833 13.9688 14.6875 13.9688C14.276 13.9688 13.9141 14.0521 13.6016 14.2188C13.2891 14.3854 13.0469 14.6198 12.875 14.9219C12.7083 15.224 12.625 15.5729 12.625 15.9688H11C10.9948 15.2917 11.151 14.6927 11.4688 14.1719C11.7865 13.651 12.2292 13.2474 12.7969 12.9609C13.3646 12.6745 14.0052 12.5312 14.7188 12.5312C15.4375 12.5312 16.0755 12.6719 16.6328 12.9531C17.1953 13.2292 17.6328 13.612 17.9453 14.1016C18.2578 14.5911 18.4167 15.1406 18.4219 15.75C18.4167 16.1823 18.3333 16.599 18.1719 17C18.0104 17.3958 17.7344 17.8385 17.3438 18.3281C16.9531 18.8125 16.401 19.4062 15.6875 20.1094L13.3906 22.4375V22.5312H18.6094V24H11V22.75ZM27.1719 12.2969C27.1719 12.8698 27.3932 13.4271 27.8359 13.9688C28.2839 14.5052 28.8828 14.9661 29.6328 15.3516C30.388 15.737 31.2031 15.9948 32.0781 16.125L31.5 17.2969C30.7604 17.1771 30.0599 16.974 29.3984 16.6875C28.737 16.3958 28.1484 16.0391 27.6328 15.6172C27.1224 15.1953 26.7188 14.7266 26.4219 14.2109C26.1302 14.737 25.7266 15.2135 25.2109 15.6406C24.6953 16.0677 24.1042 16.4245 23.4375 16.7109C22.776 16.9974 22.0729 17.2031 21.3281 17.3281L20.7656 16.1562C21.6458 16.0208 22.4583 15.763 23.2031 15.3828C23.9531 14.9974 24.5495 14.5339 24.9922 13.9922C25.4349 13.4505 25.6562 12.8854 25.6562 12.2969V11.6875H27.1719V12.2969ZM32.8281 19.5781H27.2656V22.2812H25.7969V19.5781H20.0156V18.375H32.8281V19.5781ZM31.4062 25.0312H21.6094V20.9688H23.0938V23.8281H31.4062V25.0312ZM38.4531 11.9688C39.151 11.9688 39.776 12.0911 40.3281 12.3359C40.8802 12.5807 41.3125 12.9245 41.625 13.3672C41.9375 13.8047 42.0938 14.3073 42.0938 14.875C42.0938 15.4375 41.9375 15.9401 41.625 16.3828C41.3125 16.8255 40.8802 17.1693 40.3281 17.4141C39.776 17.6536 39.151 17.7708 38.4531 17.7656C37.7552 17.7708 37.1328 17.6536 36.5859 17.4141C36.0391 17.1693 35.612 16.8281 35.3047 16.3906C34.9974 15.9479 34.8438 15.4427 34.8438 14.875C34.8438 14.3073 34.9974 13.8021 35.3047 13.3594C35.612 12.9167 36.0391 12.5755 36.5859 12.3359C37.1328 12.0911 37.7552 11.9688 38.4531 11.9688ZM38.4531 13.1719C38.0312 13.1719 37.6536 13.2422 37.3203 13.3828C36.9922 13.5234 36.7344 13.724 36.5469 13.9844C36.3646 14.2396 36.276 14.5365 36.2812 14.875C36.276 15.2083 36.3646 15.5026 36.5469 15.7578C36.7344 16.013 36.9948 16.2109 37.3281 16.3516C37.6615 16.487 38.0365 16.5521 38.4531 16.5469C38.8802 16.5521 39.263 16.487 39.6016 16.3516C39.9401 16.2109 40.2031 16.013 40.3906 15.7578C40.5781 15.5026 40.6719 15.2083 40.6719 14.875C40.6719 14.5365 40.5781 14.2396 40.3906 13.9844C40.2031 13.724 39.9401 13.5234 39.6016 13.3828C39.2682 13.2422 38.8854 13.1719 38.4531 13.1719ZM45.5 25.3281H44.0312V11.3438H45.5V25.3281ZM33.8438 18.8594C35.5 18.8594 37.1068 18.8255 38.6641 18.7578C40.2266 18.6849 41.6927 18.5469 43.0625 18.3438L43.1719 19.4531C42.026 19.6719 40.7292 19.8333 39.2812 19.9375V24.8906H37.7969V20.0156C36.9115 20.0573 35.6615 20.0833 34.0469 20.0938L33.8438 18.8594Z" fill="white"/>
</svg>
