<svg width="58" height="44" viewBox="0 0 58 44" fill="none" xmlns="http://www.w3.org/2000/svg">
<path d="M27.4053 42.07C27.0455 42.8371 25.9545 42.8371 25.5947 42.07L21.5392 33.4247C21.2281 32.7615 21.712 32 22.4445 32L30.5555 32C31.288 32 31.7719 32.7615 31.4608 33.4247L27.4053 42.07Z" fill="#6F44F5"/>
<rect width="58" height="36" rx="8" fill="#6F44F5"/>
<path d="M15.0156 24.1562C14.2448 24.1562 13.5521 24.026 12.9375 23.7656C12.3281 23.5052 11.8464 23.1406 11.4922 22.6719C11.1432 22.1979 10.9583 21.6562 10.9375 21.0469H12.6875C12.7083 21.375 12.8203 21.6615 13.0234 21.9062C13.2318 22.151 13.5078 22.3411 13.8516 22.4766C14.1953 22.6068 14.5781 22.6719 15 22.6719C15.4479 22.6719 15.8516 22.5938 16.2109 22.4375C16.5703 22.2812 16.8516 22.0651 17.0547 21.7891C17.2578 21.5078 17.3594 21.1875 17.3594 20.8281C17.3594 20.4583 17.2578 20.1276 17.0547 19.8359C16.8516 19.5443 16.5573 19.3177 16.1719 19.1562C15.7917 18.9896 15.3385 18.9062 14.8125 18.9062H13.8438V17.5H14.8125C15.2344 17.5 15.612 17.4245 15.9453 17.2734C16.2786 17.1224 16.5365 16.9115 16.7188 16.6406C16.9062 16.3698 17 16.0573 17 15.7031C17 15.3594 16.9193 15.0573 16.7578 14.7969C16.5964 14.5365 16.3672 14.3333 16.0703 14.1875C15.7734 14.0417 15.4271 13.9688 15.0312 13.9688C14.6458 13.9688 14.2891 14.0365 13.9609 14.1719C13.6328 14.3073 13.3672 14.5 13.1641 14.75C12.9661 15 12.8594 15.2917 12.8438 15.625H11.1875C11.2031 15.026 11.3828 14.4922 11.7266 14.0234C12.0755 13.5495 12.5417 13.1823 13.125 12.9219C13.7083 12.6615 14.349 12.5312 15.0469 12.5312C15.7656 12.5312 16.3984 12.6693 16.9453 12.9453C17.4974 13.2214 17.9219 13.5964 18.2188 14.0703C18.5156 14.5391 18.6615 15.0521 18.6562 15.6094C18.6615 16.2448 18.4818 16.7865 18.1172 17.2344C17.7578 17.6771 17.2708 17.974 16.6562 18.125V18.2031C17.4219 18.3125 18.0182 18.6068 18.4453 19.0859C18.8776 19.5651 19.0938 20.1667 19.0938 20.8906C19.0938 21.5104 18.9167 22.0703 18.5625 22.5703C18.2083 23.0651 17.7214 23.4531 17.1016 23.7344C16.4818 24.0156 15.7865 24.1562 15.0156 24.1562ZM27.6406 12.2969C27.6406 12.8698 27.862 13.4271 28.3047 13.9688C28.7526 14.5052 29.3516 14.9661 30.1016 15.3516C30.8568 15.737 31.6719 15.9948 32.5469 16.125L31.9688 17.2969C31.2292 17.1771 30.5286 16.974 29.8672 16.6875C29.2057 16.3958 28.6172 16.0391 28.1016 15.6172C27.5911 15.1953 27.1875 14.7266 26.8906 14.2109C26.599 14.737 26.1953 15.2135 25.6797 15.6406C25.1641 16.0677 24.5729 16.4245 23.9062 16.7109C23.2448 16.9974 22.5417 17.2031 21.7969 17.3281L21.2344 16.1562C22.1146 16.0208 22.9271 15.763 23.6719 15.3828C24.4219 14.9974 25.0182 14.5339 25.4609 13.9922C25.9036 13.4505 26.125 12.8854 26.125 12.2969V11.6875H27.6406V12.2969ZM33.2969 19.5781H27.7344V22.2812H26.2656V19.5781H20.4844V18.375H33.2969V19.5781ZM31.875 25.0312H22.0781V20.9688H23.5625V23.8281H31.875V25.0312ZM38.9219 11.9688C39.6198 11.9688 40.2448 12.0911 40.7969 12.3359C41.349 12.5807 41.7812 12.9245 42.0938 13.3672C42.4062 13.8047 42.5625 14.3073 42.5625 14.875C42.5625 15.4375 42.4062 15.9401 42.0938 16.3828C41.7812 16.8255 41.349 17.1693 40.7969 17.4141C40.2448 17.6536 39.6198 17.7708 38.9219 17.7656C38.224 17.7708 37.6016 17.6536 37.0547 17.4141C36.5078 17.1693 36.0807 16.8281 35.7734 16.3906C35.4661 15.9479 35.3125 15.4427 35.3125 14.875C35.3125 14.3073 35.4661 13.8021 35.7734 13.3594C36.0807 12.9167 36.5078 12.5755 37.0547 12.3359C37.6016 12.0911 38.224 11.9688 38.9219 11.9688ZM38.9219 13.1719C38.5 13.1719 38.1224 13.2422 37.7891 13.3828C37.4609 13.5234 37.2031 13.724 37.0156 13.9844C36.8333 14.2396 36.7448 14.5365 36.75 14.875C36.7448 15.2083 36.8333 15.5026 37.0156 15.7578C37.2031 16.013 37.4635 16.2109 37.7969 16.3516C38.1302 16.487 38.5052 16.5521 38.9219 16.5469C39.349 16.5521 39.7318 16.487 40.0703 16.3516C40.4089 16.2109 40.6719 16.013 40.8594 15.7578C41.0469 15.5026 41.1406 15.2083 41.1406 14.875C41.1406 14.5365 41.0469 14.2396 40.8594 13.9844C40.6719 13.724 40.4089 13.5234 40.0703 13.3828C39.737 13.2422 39.3542 13.1719 38.9219 13.1719ZM45.9688 25.3281H44.5V11.3438H45.9688V25.3281ZM34.3125 18.8594C35.9688 18.8594 37.5755 18.8255 39.1328 18.7578C40.6953 18.6849 42.1615 18.5469 43.5312 18.3438L43.6406 19.4531C42.4948 19.6719 41.1979 19.8333 39.75 19.9375V24.8906H38.2656V20.0156C37.3802 20.0573 36.1302 20.0833 34.5156 20.0938L34.3125 18.8594Z" fill="white"/>
</svg>
