<svg width="32" height="32" viewBox="0 0 32 32" fill="none" xmlns="http://www.w3.org/2000/svg">
<circle cx="16" cy="16" r="15.2917" stroke="currentColor" stroke-width="1.41667"/>
<path d="M24.9463 11.8324C24.7311 11.0242 24.0989 10.3878 23.2958 10.1716C21.8399 9.7793 16.0027 9.7793 16.0027 9.7793C16.0027 9.7793 10.1656 9.7793 8.70967 10.1716C7.90757 10.3878 7.27433 11.0242 7.06016 11.8324C6.66992 13.2976 6.66992 16.3547 6.66992 16.3547C6.66992 16.3547 6.66992 19.4117 7.06016 20.877C7.27433 21.6852 7.90757 22.3216 8.7107 22.5378C10.1666 22.9301 16.0038 22.9301 16.0038 22.9301C16.0038 22.9301 21.8409 22.9301 23.2958 22.5378C24.0989 22.3216 24.7311 21.6852 24.9463 20.877C25.3366 19.4117 25.3366 16.3547 25.3366 16.3547C25.3366 16.3547 25.3366 13.2976 24.9463 11.8324Z" fill="currentColor"/>
<path d="M14.0938 19.1299L18.9723 16.355L14.0938 13.5801V19.1299Z" fill="white"/>
</svg>
